<?xml version="1.0" encoding="UTF-8"?>
<svg version="1.1" xmlns="http://www.w3.org/2000/svg" width="918" height="808">
<path d="M0 0 C302.94 0 605.88 0 918 0 C918 266.64 918 533.28 918 808 C615.06 808 312.12 808 0 808 C0 541.36 0 274.72 0 0 Z " fill="#FEFEFE" transform="translate(0,0)"/>
<path d="M0 0 C0.92425781 0.26039063 1.84851563 0.52078125 2.80078125 0.7890625 C17.09416891 5.54611531 27.45162769 15.38955203 34.25 28.625 C37.92845341 36.13969334 40.42465265 43.76817601 42 52 C42.2616394 53.29393677 42.2616394 53.29393677 42.52856445 54.61401367 C44.39945701 65.01818529 44.43693847 75.40048154 44.4375 85.9375 C44.43956451 86.90277618 44.44162903 87.86805237 44.4437561 88.86257935 C44.43717867 106.07039868 42.72728822 122.18694309 39 139 C38.77006348 140.17320801 38.54012695 141.34641602 38.30322266 142.55517578 C38.06522949 143.71388184 37.82723633 144.87258789 37.58203125 146.06640625 C37.37425049 147.10869385 37.16646973 148.15098145 36.95239258 149.22485352 C35.8430142 152.45743593 34.65755141 153.87936406 32 156 C29.97290039 156.92895508 29.97290039 156.92895508 27.84765625 157.51953125 C27.07099609 157.73673828 26.29433594 157.95394531 25.49414062 158.17773438 C24.29047852 158.49194336 24.29047852 158.49194336 23.0625 158.8125 C22.26392578 159.04130859 21.46535156 159.27011719 20.64257812 159.50585938 C16.44659366 160.64263396 13.26564513 161.40464678 9 160 C9.14382632 156.95822629 9.2896549 153.91657947 9.4375 150.875 C9.48189209 149.95501221 9.52628418 149.03502441 9.57202148 148.0871582 C9.81944731 143.11037687 10.13499786 138.15263196 10.5625 133.1875 C12.34542856 108.34341349 12.59414244 77.60783452 -4.01953125 57.19140625 C-4.67308594 56.46824219 -5.32664062 55.74507812 -6 55 C-6.51949219 54.41089844 -7.03898438 53.82179687 -7.57421875 53.21484375 C-14.84658407 46.05238823 -26.76340001 41.98818173 -36.8125 41.6875 C-52.24494732 41.85344029 -68.09876695 48.55449117 -81.77954102 55.06396484 C-95.34391093 61.51504023 -109.07779767 67.50741396 -123.25 72.5 C-124.16523438 72.82605225 -125.08046875 73.15210449 -126.0234375 73.48803711 C-147.676461 80.90759081 -171.10284963 80.55548357 -192 71 C-202.10493798 65.89406059 -211.5144827 59.4914584 -220 52 C-220.93457031 51.1853125 -221.86914062 50.370625 -222.83203125 49.53125 C-227.95519971 44.97732248 -232.80972514 40.43603225 -237 35 C-237 34.34 -237 33.68 -237 33 C-231.69370422 34.65157434 -226.71794344 36.86891718 -221.71289062 39.2578125 C-209.94162126 44.6094564 -198.45126961 46.66001611 -185.64819336 46.46655273 C-183.56607974 46.43754986 -181.48652798 46.44601783 -179.40429688 46.45898438 C-150.81034019 46.41154817 -120.85360271 35.86129711 -96.25 21.625 C-68.97391669 5.85506561 -31.77971094 -9.37094041 0 0 Z " fill="#0B68B1" transform="translate(593,175)"/>
<path d="M0 0 C0.82983398 0.00398804 1.65966797 0.00797607 2.51464844 0.01208496 C19.67588273 0.10857979 36.57516682 1.04030396 53.04296875 6.27734375 C55.66632004 7.11029484 58.26728744 7.86423745 60.92578125 8.56640625 C68.73330754 10.62917165 76.21629605 12.84218657 83.62109375 16.1171875 C87.84914022 17.96444797 92.17070471 19.55027569 96.4921875 21.1640625 C99.5893227 22.41096109 102.53459906 23.84361384 105.5 25.375 C105.5 26.035 105.5 26.695 105.5 27.375 C101.62121255 27.54005478 98.32301707 27.41378808 94.5625 26.4375 C82.65991275 23.58608496 69.60662875 24.18843256 57.41870117 24.18969727 C55.06736278 24.18750453 52.71649103 24.16922808 50.36523438 24.15039062 C35.38799805 24.09192126 21.11419493 25.40227421 6.6875 29.6875 C5.61218018 29.99945313 4.53686035 30.31140625 3.42895508 30.6328125 C-3.77802461 32.76382908 -10.77823753 34.97275407 -17.5 38.375 C-18.46164062 38.85066406 -19.42328125 39.32632813 -20.4140625 39.81640625 C-40.60380504 50.64165581 -53.70383197 69.49936422 -61.375 90.6875 C-68.67448527 114.96018286 -67.7226389 141.60791531 -65.76855469 166.66650391 C-65.64715402 168.23385886 -65.56781083 169.80441369 -65.5 171.375 C-66.5 172.375 -66.5 172.375 -68.1875 172.53515625 C-74.47517683 172.26962936 -79.74856953 170.33065996 -85.4375 167.8125 C-86.55608398 167.34759155 -86.55608398 167.34759155 -87.69726562 166.87329102 C-91.55399864 165.06929272 -93.79677812 163.6435111 -95.37890625 159.59765625 C-95.78341008 158.19864601 -96.15761793 156.7904955 -96.5 155.375 C-96.85835938 154.12203125 -97.21671875 152.8690625 -97.5859375 151.578125 C-105.82186894 116.4858954 -104.17338148 75.72151807 -86.08984375 43.92578125 C-83.52210491 39.80604302 -80.61702031 36.0894492 -77.5 32.375 C-76.901875 31.59640625 -76.30375 30.8178125 -75.6875 30.015625 C-66.94177211 19.28844313 -54.47131402 11.65441324 -41.8125 6.3125 C-41.19761719 6.04993408 -40.58273437 5.78736816 -39.94921875 5.5168457 C-26.97892275 0.46450175 -13.72219138 -0.1338449 0 0 Z " fill="#81CB2B" transform="translate(362.5,157.625)"/>
<path d="M0 0 C11.82994955 10.05329046 18.3683258 24.71925723 19.93310547 40.02880859 C20.33165214 45.68046407 20.30957781 51.33679155 20.3125 57 C20.32474609 58.23363281 20.33699219 59.46726562 20.34960938 60.73828125 C20.38303913 81.93274809 20.38303913 81.93274809 16.66796875 86.56787109 C13.43333365 89.04605198 9.88065263 88.8866489 5.9375 88.875 C5.05707031 88.87757813 4.17664063 88.88015625 3.26953125 88.8828125 C1.125 88.75 1.125 88.75 0.125 87.75 C0.02923986 85.63902091 -0.05964459 83.52750198 -0.11352539 81.41503906 C-0.6736235 61.23671919 -5.3519367 40.75716541 -19.875 25.75 C-28.2242596 18.85278555 -37.83455027 17.89408128 -48.3359375 18.46655273 C-56.54165633 19.382595 -64.6526967 21.44407705 -72.671875 23.35546875 C-86.69172324 26.61466215 -99.98385122 28.33509844 -114.375 28.3125 C-115.10054077 28.3149472 -115.82608154 28.31739441 -116.5736084 28.31991577 C-134.599795 28.31300114 -153.36153488 24.3825437 -168.875 14.75 C-169.205 14.09 -169.535 13.43 -169.875 12.75 C-168.9048999 12.88929932 -167.9347998 13.02859863 -166.93530273 13.17211914 C-157.2447529 14.50802853 -147.73111515 15.19461735 -137.9375 15.1875 C-137.22778046 15.1875705 -136.51806091 15.18764099 -135.78683472 15.18771362 C-113.40990377 15.10318763 -93.52444712 9.46707733 -72.62231445 1.75048828 C-69.4134337 0.58191161 -66.18329637 -0.50544333 -62.93896484 -1.57080078 C-60.92894946 -2.23224658 -58.92680286 -2.91344429 -56.92578125 -3.6015625 C-55.69214844 -4.02179688 -54.45851563 -4.44203125 -53.1875 -4.875 C-51.32544922 -5.51308594 -51.32544922 -5.51308594 -49.42578125 -6.1640625 C-32.95452786 -11.20147553 -14.15000209 -10.13414173 0 0 Z " fill="#C8C9CD" transform="translate(569.875,252.25)"/>
<path d="M0 0 C0.33 0.66 0.66 1.32 1 2 C0.67 2.99 0.34 3.98 0 5 C-0.83572171 17.07001362 -0.12452289 26.27353386 7.75 36 C22.10318929 50.98953758 42.47803108 57.30413863 62.01855469 62.24560547 C63.99244282 62.745058 65.96450261 63.25179777 67.93457031 63.76611328 C108.35514492 74.30973783 150.3002817 78.4658605 192 79 C192 81.97 192 84.94 192 88 C182.57296698 88.11657995 173.21925025 87.78509411 163.8125 87.1875 C163.10779572 87.1433194 162.40309143 87.09913879 161.67703247 87.05361938 C139.20924221 85.6334237 116.82048801 83.96085864 94.5625 80.5 C93.25982178 80.29850342 91.95714355 80.09700684 90.61499023 79.8894043 C83.2614915 78.69241251 76.13726779 77.1414563 69 75 C69.36351562 76.31097656 69.36351562 76.31097656 69.734375 77.6484375 C71.92763142 85.69600142 73.89800535 93.75366816 75.60449219 101.91943359 C76.43606947 105.81494603 77.49551326 109.30292794 79 113 C79.48182184 114.93517971 79.96289536 116.87055284 80.43807983 118.80737305 C81.32309608 122.26072921 82.38804346 125.65194366 83.4609375 129.05078125 C83.6927774 129.79023483 83.92461731 130.52968842 84.16348267 131.29154968 C84.65145467 132.84568941 85.14059558 134.39946257 85.63085938 135.95288086 C86.36946631 138.29495306 87.1029506 140.63858558 87.8359375 142.98242188 C91.87842292 155.86156478 96.50452246 168.43346025 101.4375 181 C102.13456055 182.79050781 102.13456055 182.79050781 102.84570312 184.6171875 C105.41282864 191.16210444 108.11413097 197.57156609 111.19946289 203.890625 C111.46364014 204.58671875 111.72781738 205.2828125 112 206 C111.67 206.66 111.34 207.32 111 208 C99.37146682 194.90844096 90.39403155 180.27256144 82.04980469 164.92773438 C81.02465224 163.04526839 79.98586328 161.17086214 78.9453125 159.296875 C73.70927684 149.77922994 69.26818924 139.98351623 65 130 C64.62117676 129.12263184 64.24235352 128.24526367 63.85205078 127.34130859 C56.99297961 111.41736089 50.93094954 95.25420289 45.078125 78.94067383 C44.38259734 77.04356544 43.6455846 75.1609185 42.859375 73.29956055 C42 71 42 71 42 68 C40.824375 67.814375 39.64875 67.62875 38.4375 67.4375 C22.75370974 63.94946463 2.78993493 52.99517386 -7.125 40.2734375 C-10.96468551 34.01548851 -12.8973902 28.43551881 -12 21 C-9.91854411 13.32619878 -5.64916057 5.64916057 0 0 Z " fill="#898D8F" transform="translate(237,284)"/>
<path d="M0 0 C6.51352576 5.55565432 11.22504863 13.68968167 12.2734375 22.2265625 C12.61117462 30.20235447 10.27174137 35.98830825 5.23828125 42.16015625 C-9.90242079 58.09935373 -35.98518262 70.98305153 -58.0390625 72.125 C-60.8093866 73.36116055 -61.15394017 75.31709594 -62.2467041 78.01147461 C-63.42896117 81.13235739 -64.47948559 84.29116942 -65.49609375 87.46875 C-65.9702841 88.9261883 -66.44499734 90.38345654 -66.92016602 91.84057617 C-67.29034348 92.97926651 -67.29034348 92.97926651 -67.66799927 94.14096069 C-81.31903357 135.99059792 -99.14304865 175.73739164 -119 215 C-120 212 -120 212 -119.25 210.0390625 C-118.8375 209.24242187 -118.425 208.44578125 -118 207.625 C-114.87992349 201.12338805 -112.7030531 194.38460281 -110.5 187.52587891 C-109.26406597 183.70114499 -108.03059829 179.93329355 -106.40625 176.25390625 C-105.03779937 173.08746355 -104.04181744 170.00994905 -103.125 166.6875 C-102.78726563 165.47191406 -102.44953125 164.25632812 -102.1015625 163.00390625 C-101.92399414 162.35695801 -101.74642578 161.71000977 -101.56347656 161.04345703 C-100.97534925 158.91060363 -100.37551839 156.781298 -99.7734375 154.65234375 C-96.99870839 144.81087681 -94.40660009 134.93764089 -92 125 C-91.84176758 124.35305176 -91.68353516 123.70610352 -91.52050781 123.03955078 C-87.88755771 108.15035061 -84.45881356 93.13020351 -82 78 C-83.03358643 78.19263428 -84.06717285 78.38526855 -85.13208008 78.58374023 C-95.28632561 80.4450753 -105.42872046 81.92141216 -115.6875 83.0625 C-116.43169189 83.14649048 -117.17588379 83.23048096 -117.94262695 83.3170166 C-139.55984515 85.7419883 -161.23079204 87.49350849 -183 87 C-183 84.03 -183 81.06 -183 78 C-182.03235718 77.97812622 -182.03235718 77.97812622 -181.04516602 77.95581055 C-140.59468908 76.9545436 -100.11501118 72.72326312 -61 62 C-60.00307129 61.73074707 -59.00614258 61.46149414 -57.97900391 61.18408203 C-37.02408672 55.4435138 -13.56171863 47.35353203 -1.62109375 27.734375 C2.38141898 19.31096842 2.09761822 8.95324848 0 0 Z " fill="#898C90" transform="translate(680,287)"/>
<path d="M0 0 C3.59703465 3.20795143 5.89597591 5.65650373 6.49609375 10.609375 C6.76374924 16.6113466 6.36109939 20.43770068 2.1875 25.0625 C-4.57306647 31.28173997 -14.71539872 33.3125 -23.75 33.3125 C-25.10532439 33.25079417 -26.46061294 33.17701279 -27.8125 33.0625 C-27.55629316 34.6690676 -27.28194129 36.2727483 -27 37.875 C-26.84917969 38.76832031 -26.69835937 39.66164063 -26.54296875 40.58203125 C-25.74381435 43.29573736 -24.8068119 44.15560999 -22.8125 46.0625 C-22.8125 47.0525 -22.8125 48.0425 -22.8125 49.0625 C-28.46919619 50.9836421 -33.48567653 51.36829835 -39.4375 51.3125 C-40.68660156 51.32410156 -40.68660156 51.32410156 -41.9609375 51.3359375 C-46.35522242 51.32194296 -49.81634394 51.11766597 -53.8125 49.0625 C-53.5 46.75 -53.5 46.75 -52.8125 44.0625 C-52.31226318 43.68665771 -51.81202637 43.31081543 -51.29663086 42.92358398 C-48.8701619 39.88081825 -49.36526556 36.32965898 -49.37890625 32.59765625 C-49.37104347 31.35307899 -49.37104347 31.35307899 -49.36302185 30.08335876 C-49.35660054 28.32910277 -49.3579401 26.57480372 -49.36645508 24.82055664 C-49.37495862 22.138053 -49.34621809 19.45768345 -49.31445312 16.77539062 C-49.31284083 15.07031314 -49.31341919 13.36523188 -49.31640625 11.66015625 C-49.30517227 10.85900894 -49.29393829 10.05786163 -49.28236389 9.23243713 C-49.3286323 5.52935045 -49.4090561 3.53754058 -51.85131836 0.66186523 C-52.4985083 0.13407471 -53.14569824 -0.39371582 -53.8125 -0.9375 C-53.6875 -3.125 -53.6875 -3.125 -52.8125 -4.9375 C-39.49302621 -11.59723689 -11.85164442 -8.30903332 0 0 Z " fill="#1068AF" transform="translate(278.8125,541.9375)"/>
<path d="M0 0 C3.31325244 2.83874141 5.27079925 5.33176119 5.89453125 9.7265625 C6.0910076 14.96855149 5.60592272 18.91300094 2.5546875 23.33203125 C-3.04901671 29.28596697 -13.07859865 32.13616578 -21.12109375 32.4296875 C-21.99121094 32.41808594 -22.86132812 32.40648437 -23.7578125 32.39453125 C-24.64082031 32.38550781 -25.52382813 32.37648438 -26.43359375 32.3671875 C-27.09746094 32.35558594 -27.76132812 32.34398437 -28.4453125 32.33203125 C-28.18910566 33.93859885 -27.91475379 35.54227955 -27.6328125 37.14453125 C-27.48199219 38.03785156 -27.33117187 38.93117188 -27.17578125 39.8515625 C-26.37662685 42.56526861 -25.4396244 43.42514124 -23.4453125 45.33203125 C-23.4453125 46.32203125 -23.4453125 47.31203125 -23.4453125 48.33203125 C-29.10200869 50.25317335 -34.11848903 50.6378296 -40.0703125 50.58203125 C-41.31941406 50.59363281 -41.31941406 50.59363281 -42.59375 50.60546875 C-46.98803492 50.59147421 -50.44915644 50.38719722 -54.4453125 48.33203125 C-54.1328125 46.01953125 -54.1328125 46.01953125 -53.4453125 43.33203125 C-52.94507568 42.95618896 -52.44483887 42.58034668 -51.92944336 42.19311523 C-49.5029744 39.1503495 -49.99807806 35.59919023 -50.01171875 31.8671875 C-50.00385597 30.62261024 -50.00385597 30.62261024 -49.99583435 29.35289001 C-49.98941304 27.59863402 -49.9907526 25.84433497 -49.99926758 24.09008789 C-50.00777112 21.40758425 -49.97903059 18.7272147 -49.94726562 16.04492188 C-49.94565333 14.33984439 -49.94623169 12.63476313 -49.94921875 10.9296875 C-49.93798477 10.12854019 -49.92675079 9.32739288 -49.91517639 8.50196838 C-49.9614448 4.7988817 -50.0418686 2.80707183 -52.48413086 -0.06860352 C-53.1313208 -0.59639404 -53.77851074 -1.12418457 -54.4453125 -1.66796875 C-54.3203125 -3.85546875 -54.3203125 -3.85546875 -53.4453125 -5.66796875 C-39.47276871 -12.65424065 -12.307786 -8.74222568 0 0 Z " fill="#0F68AE" transform="translate(592.4453125,542.66796875)"/>
<path d="M0 0 C0.00546844 0.90415901 0.00546844 0.90415901 0.01104736 1.82658386 C0.05288392 8.10491378 0.12223768 14.38251343 0.20751953 20.66040039 C0.23573113 23.00277398 0.25694468 25.34524281 0.27099609 27.68774414 C0.29242224 31.05664839 0.33907316 34.42440737 0.390625 37.79296875 C0.39185364 38.83897751 0.39308228 39.88498627 0.39434814 40.96269226 C0.50946892 46.68783421 0.79708783 49.75980562 5 54 C4.875 56.75 4.875 56.75 4 59 C0.86941914 60.56529043 -2.44079008 60.26691314 -5.875 60.3125 C-6.59558594 60.34150391 -7.31617188 60.37050781 -8.05859375 60.40039062 C-11.60358476 60.44282606 -13.60951558 60.28526043 -16.5078125 58.16796875 C-18 56 -18 56 -18 53 C-18.66 53 -19.32 53 -20 53 C-20.309375 53.86625 -20.309375 53.86625 -20.625 54.75 C-22.58448602 57.95643167 -24.69125885 59.25198581 -28 61 C-33.24700891 61.65587611 -36.60970273 60.92686485 -41 58 C-47.86242614 51.74005667 -50.94833195 45.17440352 -51.5 35.9375 C-51.2624093 29.5522499 -48.56995206 25.66682387 -44.23828125 21.171875 C-39.77462506 17.29673332 -36.15284108 16.22232465 -30.265625 16.6015625 C-25.79469433 17.38782962 -22.97631033 19.71039385 -20 23 C-19.58168596 19.71000718 -19.58168596 19.71000718 -20 16 C-22.35418376 13.06026719 -22.35418376 13.06026719 -25 11 C-24.5 9.19921875 -24.5 9.19921875 -23 7 C-20.31363662 5.76392547 -17.78557221 4.74995219 -15 3.8125 C-13.54148109 3.29870357 -12.08313948 2.78440349 -10.625 2.26953125 C-9.42875 1.85058594 -8.2325 1.43164062 -7 1 C-4.53721199 -0.231394 -2.7204945 -0.07159196 0 0 Z " fill="#0B66AE" transform="translate(396,533)"/>
<path d="M0 0 C18.71890991 2.15899084 18.71890991 2.15899084 25 4 C27.25709734 7.38564601 27.79966927 9.92985197 28.65625 13.8984375 C28.80404907 14.57041168 28.95184814 15.24238586 29.10412598 15.9347229 C29.57544728 18.08021805 30.03842251 20.22738917 30.5 22.375 C30.96228462 24.51529585 31.42648391 26.65510444 31.89587402 28.79385376 C32.32263009 30.7396416 32.74254876 32.68692531 33.16210938 34.63427734 C33.89914952 37.59489372 34.87058959 40.1780936 36 43 C36.50046146 44.96297138 36.99935763 46.92646388 37.47296143 48.89608765 C38.33159806 52.32372331 39.39755986 55.68209079 40.4609375 59.05078125 C40.6927774 59.79023483 40.92461731 60.52968842 41.16348267 61.29154968 C41.65145467 62.84568941 42.14059558 64.39946257 42.63085938 65.95288086 C43.36946631 68.29495306 44.1029506 70.63858558 44.8359375 72.98242188 C48.87842292 85.86156478 53.50452246 98.43346025 58.4375 111 C58.90220703 112.19367188 59.36691406 113.38734375 59.84570312 114.6171875 C62.41282864 121.16210444 65.11413097 127.57156609 68.19946289 133.890625 C68.46364014 134.58671875 68.72781738 135.2828125 69 136 C68.67 136.66 68.34 137.32 68 138 C56.37146682 124.90844096 47.39403155 110.27256144 39.04980469 94.92773438 C38.02465224 93.04526839 36.98586328 91.17086214 35.9453125 89.296875 C30.70927684 79.77922994 26.26818924 69.98351623 22 60 C21.43176514 58.68394775 21.43176514 58.68394775 20.85205078 57.34130859 C15.5282189 44.98155634 10.59520176 32.49839437 5.9375 19.875 C5.69566986 19.22398315 5.45383972 18.57296631 5.2046814 17.90222168 C4.51433735 16.03867355 3.83317656 14.17173148 3.15234375 12.3046875 C2.76038818 11.23202637 2.36843262 10.15936523 1.96459961 9.05419922 C1.01197166 6.03790573 0.43879892 3.12875062 0 0 Z " fill="#81C92D" transform="translate(280,354)"/>
<path d="M0 0 C0.65871094 0.39316406 1.31742188 0.78632812 1.99609375 1.19140625 C2.96869141 1.73474609 2.96869141 1.73474609 3.9609375 2.2890625 C8.7317324 5.26450541 11.39335429 8.78923149 12.99609375 14.19140625 C13.89307997 19.51408863 13.61287306 23.79230491 10.87109375 28.50390625 C6.97155284 33.9522789 2.21305634 37.6208619 -4.00390625 40.19140625 C-6.97325779 40.63274357 -9.88110344 40.65643199 -12.87890625 40.62890625 C-14.02552734 40.65887695 -14.02552734 40.65887695 -15.1953125 40.68945312 C-22.96262318 40.68285948 -29.43065068 37.60984916 -35.00390625 32.19140625 C-39.0235019 26.97679568 -39.69912214 22.68311365 -39.4453125 16.125 C-38.47335482 9.66535208 -35.05509945 5.79970063 -30.06640625 1.81640625 C-21.43433304 -4.52914243 -9.37985236 -4.93948188 0 0 Z " fill="#0C68B1" transform="translate(672.00390625,552.80859375)"/>
<path d="M0 0 C0.825 0.53625 1.65 1.0725 2.5 1.625 C4.97234818 5.53955128 4.97067997 9.53052581 4 14 C1.56226186 17.40496972 -2.18033868 19.42640713 -6 21 C-8.24133258 21.28693388 -10.4944319 21.48966591 -12.75 21.625 C-14.50570313 21.73714844 -14.50570313 21.73714844 -16.296875 21.8515625 C-17.18890625 21.90054688 -18.0809375 21.94953125 -19 22 C-14.92265444 25.46400127 -12.46291811 26.90415933 -7 27 C-3.54285673 25.71204466 -1.41822921 24.41822921 1.1875 21.8125 C1.785625 21.214375 2.38375 20.61625 3 20 C3.99 20 4.98 20 6 20 C6.34287537 23.60019136 6.13805933 25.71187619 4.5625 29 C0.80776512 33.39578717 -3.84087084 36.42043542 -9 39 C-27.89021087 40.23903534 -27.89021087 40.23903534 -34 35 C-39.78149963 29.35480291 -42.14457428 25.52329658 -42.4375 17.3125 C-42.38331338 11.47238602 -41.79232978 7.96884047 -37.8515625 3.6171875 C-27.65611456 -5.28769741 -11.57699958 -8.01484587 0 0 Z " fill="#0E66AD" transform="translate(501,554)"/>
<path d="M0 0 C5.93543896 4.73707243 8.28166865 8.75279108 9.359375 16.328125 C9.7522463 20.43981913 9.98452648 24.55506453 10.10546875 28.68359375 C10.78101223 31.97809203 12.23846742 33.05621123 14.64453125 35.3125 C14.39453125 38.0625 14.39453125 38.0625 13.64453125 40.3125 C7.8406555 42.06379418 1.6150132 42.08174649 -4.35546875 41.3125 C-7.52814628 39.29069569 -8.69177049 36.63989653 -10.35546875 33.3125 C-10.58821084 30.43339412 -10.77519632 27.57103505 -10.91796875 24.6875 C-10.96115234 23.88570312 -11.00433594 23.08390625 -11.04882812 22.2578125 C-11.15498332 20.2762489 -11.2557373 18.29439729 -11.35546875 16.3125 C-12.67165873 17.09801657 -13.98332103 17.8911237 -15.29296875 18.6875 C-16.38931641 19.34878906 -16.38931641 19.34878906 -17.5078125 20.0234375 C-19.49319147 21.1898984 -19.49319147 21.1898984 -20.35546875 23.3125 C-20.26895244 24.85863014 -20.11544239 26.40159387 -19.91796875 27.9375 C-19.81613281 28.75476563 -19.71429688 29.57203125 -19.609375 30.4140625 C-19.48369141 31.35378906 -19.48369141 31.35378906 -19.35546875 32.3125 C-17.04546875 33.3025 -14.73546875 34.2925 -12.35546875 35.3125 C-13.72530378 38.47365776 -14.34453255 39.3052092 -17.35546875 41.3125 C-30.19987507 42.68469745 -30.19987507 42.68469745 -35.04296875 39.5625 C-35.80609375 38.82 -36.56921875 38.0775 -37.35546875 37.3125 C-37.97421875 36.755625 -38.59296875 36.19875 -39.23046875 35.625 C-41.03929437 31.90685845 -40.97905537 28.35856204 -40.35546875 24.3125 C-37.60705067 18.93516028 -32.78393927 17.25458213 -27.35546875 15.3125 C-23.94087628 14.24348195 -20.52091147 13.21663701 -17.078125 12.2421875 C-14.24841381 11.49922719 -14.24841381 11.49922719 -12.35546875 9.3125 C-12.18865766 6.22902174 -12.18865766 6.22902174 -12.35546875 3.3125 C-15.18470217 2.93617102 -15.18470217 2.93617102 -18.35546875 3.3125 C-20.61301412 5.24732751 -20.61301412 5.24732751 -22.41796875 7.8125 C-24.328125 10.34375 -24.328125 10.34375 -26.35546875 12.3125 C-29.23962044 12.69391085 -30.69643044 12.68595504 -33.23046875 11.25 C-34.35546875 9.3125 -34.35546875 9.3125 -34.48046875 5.875 C-33.31848969 2.19539963 -33.17528884 1.76732726 -30.10546875 -0.0625 C-21.87215063 -4.25202028 -7.977257 -5.00533773 0 0 Z " fill="#0F67AE" transform="translate(327.35546875,551.6875)"/>
<path d="M0 0 C1.84508846 5.53526537 -1.27958603 11.33506601 -3 16.75 C-3.21874786 17.44562042 -3.43749573 18.14124084 -3.66287231 18.85794067 C-17.14563461 61.53533247 -35.83325448 102.12484408 -56 142 C-57 139 -57 139 -56.25 137.0390625 C-55.8375 136.24242187 -55.425 135.44578125 -55 134.625 C-51.87992349 128.12338805 -49.7030531 121.38460281 -47.5 114.52587891 C-46.26406597 110.70114499 -45.03059829 106.93329355 -43.40625 103.25390625 C-42.03779937 100.08746355 -41.04181744 97.00994905 -40.125 93.6875 C-39.78726563 92.47191406 -39.44953125 91.25632812 -39.1015625 90.00390625 C-38.92399414 89.35695801 -38.74642578 88.71000977 -38.56347656 88.04345703 C-37.97534925 85.91060363 -37.37551839 83.781298 -36.7734375 81.65234375 C-33.99870839 71.81087681 -31.40660009 61.93764089 -29 52 C-28.84176758 51.35305176 -28.68353516 50.70610352 -28.52050781 50.03955078 C-26.03059558 39.83495105 -23.83198111 29.58076513 -21.75024414 19.28515625 C-21.55164795 18.31191406 -21.35305176 17.33867187 -21.1484375 16.3359375 C-20.88812744 15.04502197 -20.88812744 15.04502197 -20.62255859 13.72802734 C-19.87534379 10.45376136 -18.92263559 7.22922457 -18 4 C-12.06 2.68 -6.12 1.36 0 0 Z " fill="#0D67AF" transform="translate(617,360)"/>
<path d="M0 0 C3.27789138 1.46458977 5.69801819 3.25434013 8 6 C8.90012839 10.33034738 8.46276756 14.03422423 6.5625 18 C2.91010915 20.85064652 -0.41227663 21.408888 -5 21 C-8.65579067 19.09594236 -9.69966337 17.9010099 -11 14 C-11 10.55029609 -10.35053534 9.44455675 -8 7 C-10.95039139 7.31239438 -12.53692648 7.49576439 -14.58203125 9.72265625 C-17.50240239 15.27599693 -18.48522613 20.11853818 -18.5625 26.3125 C-18.57708252 26.9938501 -18.59166504 27.6752002 -18.60668945 28.37719727 C-18.50817278 33.23436798 -17.17286297 35.44715344 -14 39 C-14.125 41.75 -14.125 41.75 -15 44 C-18.84997321 45.9249866 -23.5775888 45.22837952 -27.8125 45.25 C-28.81087891 45.270625 -29.80925781 45.29125 -30.83789062 45.3125 C-39.9226735 45.3609199 -39.9226735 45.3609199 -44 42 C-42.99389195 39.83299805 -42.1405475 38.14339403 -40.45703125 36.42578125 C-38.23129034 32.72019115 -38.48651901 29.18064283 -38.5 24.9375 C-38.47164063 24.12216797 -38.44328125 23.30683594 -38.4140625 22.46679688 C-38.40659303 20.19421129 -38.45274491 18.20699166 -39 16 C-41.41797107 14.07813652 -41.41797107 14.07813652 -44 13 C-44 12.01 -44 11.02 -44 10 C-42.86820312 9.51789062 -41.73640625 9.03578125 -40.5703125 8.5390625 C-39.08843392 7.90129197 -37.60666895 7.26325739 -36.125 6.625 C-35.00544922 6.14933594 -35.00544922 6.14933594 -33.86328125 5.6640625 C-32.79013672 5.2 -32.79013672 5.2 -31.6953125 4.7265625 C-31.03547363 4.44377441 -30.37563477 4.16098633 -29.69580078 3.86962891 C-27.80513301 3.00949097 -27.80513301 3.00949097 -26 1 C-23.375 1.375 -23.375 1.375 -21 2 C-20.34 3.98 -19.68 5.96 -19 8 C-18.443125 7.236875 -17.88625 6.47375 -17.3125 5.6875 C-12.26401869 -0.17965396 -7.47799231 -0.9239694 0 0 Z " fill="#0E68AF" transform="translate(449,548)"/>
<path d="M0 0 C3.24006063 1.35002526 4.51973759 2.19956265 6.3125 5.1875 C6.539375 5.785625 6.76625 6.38375 7 7 C6.34 7 5.68 7 5 7 C5.99 8.485 5.99 8.485 7 10 C8.27741415 13.9032099 9 16.87239983 9 21 C9.66 21 10.32 21 11 21 C11.29341888 26.67276511 11.00559652 29.99067246 8 35 C8.66 35.33 9.32 35.66 10 36 C9.34 36 8.68 36 8 36 C7.690625 36.86625 7.690625 36.86625 7.375 37.75 C5.41551398 40.95643167 3.30874115 42.25198581 0 44 C-5.24700891 44.65587611 -8.60970273 43.92686485 -13 41 C-19.86242614 34.74005667 -22.94833195 28.17440352 -23.5 18.9375 C-23.2624093 12.5522499 -20.56995206 8.66682387 -16.23828125 4.171875 C-11.15715906 -0.23932236 -6.59841424 -1.14705652 0 0 Z " fill="#0E67AE" transform="translate(368,550)"/>
<path d="M0 0 C13.24035874 -1.22690583 13.24035874 -1.22690583 17.5546875 1.78125 C19.25055547 3.77970023 20.69687083 5.7283974 22 8 C25.39299919 7.25908072 25.39299919 7.25908072 26.8125 3.4375 C28.0625 1.5234375 28.0625 1.5234375 30 0 C34.71676124 -0.6324748 39.26834074 -0.40337555 44 0 C40.49084195 5.5529534 36.84569018 10.49385517 32.22265625 15.17578125 C30.77148726 16.90553706 30.77148726 16.90553706 31.2578125 18.9206543 C32.07474203 21.20940062 32.96662755 22.36124726 34.65234375 24.09375 C35.18150391 24.64933594 35.71066406 25.20492188 36.25585938 25.77734375 C36.81080078 26.34582031 37.36574219 26.91429687 37.9375 27.5 C44.57741716 34.34959876 44.57741716 34.34959876 46 38 C41.16738839 38.6805527 36.80739404 38.94530251 32 38 C28.1922123 34.82092825 25.58461323 31.2119623 23 27 C20.21493125 29.68887394 18.01143563 31.98105973 16 35.3125 C14.80078125 36.83984375 14.80078125 36.83984375 13 38 C8.62393332 38.51702615 4.38542428 38.34672461 0 38 C1.5194373 33.1396313 4.32918654 29.93920644 7.625 26.1875 C8.140625 25.59001953 8.65625 24.99253906 9.1875 24.37695312 C10.45246272 22.91287591 11.72543834 21.45572845 13 20 C11.48915236 15.14890488 8.68887887 12.02589472 5.375 8.3125 C0 2.25890625 0 2.25890625 0 0 Z " fill="#99CA32" transform="translate(444,351)"/>
<path d="M0 0 C2.77680405 2.77680405 2.25369331 4.47981312 2.2734375 8.36328125 C2.2940625 9.64267578 2.3146875 10.92207031 2.3359375 12.24023438 C2.35848766 14.27440625 2.3749877 16.30823841 2.38085938 18.3425293 C2.39042224 20.30793795 2.42540561 22.27317054 2.4609375 24.23828125 C2.46915527 25.41430908 2.47737305 26.59033691 2.48583984 27.80200195 C3.09595616 31.59683276 4.519452 33.14278076 7 36 C7 36.99 7 37.98 7 39 C3.9287486 40.77948801 1.69191799 41.25605436 -1.84375 41.265625 C-2.76027344 41.26820313 -3.67679688 41.27078125 -4.62109375 41.2734375 C-5.57113281 41.26570312 -6.52117188 41.25796875 -7.5 41.25 C-8.45003906 41.25773438 -9.40007813 41.26546875 -10.37890625 41.2734375 C-11.75369141 41.26957031 -11.75369141 41.26957031 -13.15625 41.265625 C-13.98962891 41.26336914 -14.82300781 41.26111328 -15.68164062 41.25878906 C-18.18914626 40.97888637 -19.83070911 40.25689064 -22 39 C-21.35826408 34.37950139 -21.35826408 34.37950139 -19.484375 32.39453125 C-17.20534289 28.71809261 -17.52545939 25.17696632 -17.5625 20.9375 C-17.54251953 20.12216797 -17.52253906 19.30683594 -17.50195312 18.46679688 C-17.39081729 13.69695425 -17.39081729 13.69695425 -20.02734375 9.94140625 C-20.67832031 9.63074219 -21.32929687 9.32007813 -22 9 C-21.984375 7.171875 -21.984375 7.171875 -21 5 C-18.36892567 3.85866639 -15.98851178 3.01659045 -13.25 2.25 C-12.17492187 1.91935547 -12.17492187 1.91935547 -11.078125 1.58203125 C-7.35518719 0.4802059 -3.91466025 -0.49295722 0 0 Z " fill="#0E67AE" transform="translate(624,552)"/>
<path d="M0 0 C3.30348431 0.91488712 6.06405883 2.24762807 9 4 C9.97259766 4.54333984 9.97259766 4.54333984 10.96484375 5.09765625 C15.73563865 8.07309916 18.39726054 11.59782524 20 17 C20.89698622 22.32268238 20.61677931 26.60089866 17.875 31.3125 C13.97545909 36.76087265 9.21696259 40.42945565 3 43 C0.03064846 43.44133732 -2.87719719 43.46502574 -5.875 43.4375 C-7.02162109 43.4674707 -7.02162109 43.4674707 -8.19140625 43.49804688 C-15.95871693 43.49145323 -22.42674443 40.41844291 -28 35 C-32.70315539 28.89860922 -32.44471606 23.52311338 -32 16 C-31.34 15.67 -30.68 15.34 -30 15 C-29.97421875 15.94101562 -29.9484375 16.88203125 -29.921875 17.8515625 C-29.73718967 27.24138229 -29.73718967 27.24138229 -25 35 C-18.16818089 40.46545529 -11.45029623 41.34491005 -3 41 C-4.98 39.35 -6.96 37.7 -9 36 C-8.67 35.34 -8.34 34.68 -8 34 C-7.608125 34.495 -7.21625 34.99 -6.8125 35.5 C-4.44908285 37.45593143 -2.98564997 37.24207973 0 37 C2.90109974 31.19780052 -0.00689008 22.32621255 -1.875 16.5 C-3.12136425 12.84923228 -4.38231722 9.87208674 -7 7 C-9.85291355 6.65208371 -11.4254716 6.7127358 -14 8 C-13.34 6.35 -12.68 4.7 -12 3 C-13.32 2.67 -14.64 2.34 -16 2 C-11.094282 -1.27047867 -5.73330606 -0.53999743 0 0 Z " fill="#1066AC" transform="translate(665,550)"/>
<path d="M0 0 C-1.0749449 13.43681127 -6.37993985 26.58558958 -10.625 39.3125 C-10.88700195 40.09857635 -11.14900391 40.88465271 -11.41894531 41.69454956 C-19.23870591 65.07375445 -28.8371676 87.56124499 -39 110 C-40.33757436 105.98727693 -38.90782023 103.66089725 -37.375 99.9375 C-34.75651909 93.29510864 -32.64798316 86.63342866 -30.82568359 79.73217773 C-29.67417298 75.3791418 -28.40292216 71.08888824 -27.0390625 66.796875 C-24.95665473 60.08186443 -23.41980474 53.31913273 -22 46.4375 C-21.74581299 45.22602295 -21.49162598 44.0145459 -21.22973633 42.76635742 C-20.47973987 39.17893363 -19.73899676 35.58970348 -19 32 C-18.78778809 30.98131836 -18.57557617 29.96263672 -18.35693359 28.91308594 C-17.79489233 26.21399689 -17.23934755 23.51368963 -16.6875 20.8125 C-16.52830078 20.04284912 -16.36910156 19.27319824 -16.20507812 18.48022461 C-15.17334547 13.3357647 -14.52162535 8.2214181 -14 3 C-15.32 2.34 -16.64 1.68 -18 1 C-11.96445452 0.30739642 -6.07593562 -0.11251733 0 0 Z " fill="#C9CACD" transform="translate(580,368)"/>
<path d="M0 0 C4.83831756 2.3295603 7.6006196 5.20123921 10 10 C10.84473097 14.30985189 10.3392696 17.26491587 8.5 21.25 C4.4556389 25.69879721 0.37344602 27.66688477 -5.5625 28.5 C-10.69594609 27.75331693 -14.32048555 25.8474659 -17.875 21.9375 C-20.23774637 17.8683257 -20.90106432 13.59795436 -20 9 C-15.20507724 0.97201857 -9.04917092 -1.14546467 0 0 Z " fill="#1D332A" transform="translate(236,610)"/>
<path d="M0 0 C4.42977671 2.1357852 7.19613671 4.39012714 9 9 C9.729844 13.33483101 10.00857417 17.21785924 7.79296875 21.1328125 C4.72435036 24.84622918 1.74766482 27.57036514 -3.1484375 28.3359375 C-9.99085984 28.45598 -13.21815755 26.41581055 -18.375 21.9375 C-20.8815158 17.40649067 -20.75431825 13.05926581 -20 8 C-18.3125 5 -18.3125 5 -16 3 C-15.319375 2.401875 -14.63875 1.80375 -13.9375 1.1875 C-9.32548813 -0.67693033 -4.90058313 -0.64765416 0 0 Z " fill="#182F26" transform="translate(175,610)"/>
<path d="M0 0 C3.99585923 1.82849389 6.55520415 4.33280623 9 8 C9.56740599 12.76031518 9.54969012 17.38528528 8 21.9375 C4.1127626 25.94621356 -0.52069132 28.18805192 -6.125 28.5 C-11.85711018 27.76037288 -14.60742231 25.5758116 -18.375 21.3125 C-20.48144745 17.0185879 -21.20629419 13.68325979 -20 9 C-14.67870996 0.79000966 -9.61974701 -1.20578096 0 0 Z " fill="#193027" transform="translate(382,610)"/>
<path d="M0 0 C3.91499351 2.66931376 7.1987928 5.20044679 8.19921875 10.0546875 C8.46189778 15.43507862 7.39318676 18.75244656 3.75 22.875 C-0.33713816 26.48688954 -3.60261021 27.57046469 -8.93359375 27.3359375 C-12.95300574 26.53612196 -16.15345154 24.51115037 -19.25 21.875 C-22.36742133 17.198868 -21.96549289 12.3459911 -21.25 6.875 C-17.13943365 -1.72279815 -8.21577046 -2.84392054 0 0 Z " fill="#172F26" transform="translate(328.25,611.125)"/>
<path d="M0 0 C0.80373047 -0.020625 1.60746094 -0.04125 2.43554688 -0.0625 C8.7121397 -0.10355703 12.89147737 1.08382186 17.6875 5.375 C19.96659972 9.40725335 20.08731718 12.72091401 19.3125 17.25 C17.18346135 21.84872349 15.01899297 23.76690276 10.34741211 25.66113281 C6.71077468 26.71351068 3.12940929 26.56296869 -0.625 26.4375 C-1.40423828 26.42396484 -2.18347656 26.41042969 -2.98632812 26.39648438 C-4.88702404 26.36150224 -6.78735834 26.30770959 -8.6875 26.25 C-8.6875 22.25 -8.6875 22.25 -7.6875 21.25 C-7.56060943 18.44660365 -7.5022907 15.67882157 -7.5 12.875 C-7.48775391 12.09382812 -7.47550781 11.31265625 -7.46289062 10.5078125 C-7.45278574 6.57364477 -7.45811633 4.59407551 -9.6875 1.25 C-7.5503635 -0.8871365 -2.94862869 0.01847222 0 0 Z " fill="#183128" transform="translate(194.6875,610.75)"/>
<path d="M0 0 C1.2375 0.804375 1.2375 0.804375 2.5 1.625 C4.97234818 5.53955128 4.97067997 9.53052581 4 14 C2.23045546 16.47165415 0.67712084 17.35254102 -2 19 C-2.5878125 19.36867188 -3.175625 19.73734375 -3.78125 20.1171875 C-6.83762047 21.33327857 -9.47478889 21.19050422 -12.75 21.125 C-13.92046875 21.10695313 -15.0909375 21.08890625 -16.296875 21.0703125 C-17.18890625 21.04710937 -18.0809375 21.02390625 -19 21 C-19 20.34 -19 19.68 -19 19 C-19.639375 18.7525 -20.27875 18.505 -20.9375 18.25 C-23 17 -23 17 -23.6171875 15.203125 C-24.01182592 12.93194063 -24.16776839 10.80465196 -24.1875 8.5 C-24.20167969 7.7471875 -24.21585937 6.994375 -24.23046875 6.21875 C-23.97336977 3.74362764 -23.16608818 2.17546887 -22 0 C-22 -0.66 -22 -1.32 -22 -2 C-24.64 -1.67 -27.28 -1.34 -30 -1 C-23.2814094 -7.7185906 -6.94740785 -4.80974389 0 0 Z " fill="#1066AC" transform="translate(501,554)"/>
<path d="M0 0 C2.8095629 1.43271744 4.77248267 2.77248267 7 5 C6.625 7.125 6.625 7.125 6 9 C4.68 9.33 3.36 9.66 2 10 C1.68546875 9.4946875 1.3709375 8.989375 1.046875 8.46875 C0.61890625 7.8190625 0.1909375 7.169375 -0.25 6.5 C-0.66765625 5.8503125 -1.0853125 5.200625 -1.515625 4.53125 C-2.25039063 3.77328125 -2.25039063 3.77328125 -3 3 C-4.32 3 -5.64 3 -7 3 C-6.90389084 4.9173421 -6.90389084 4.9173421 -6 7 C-3.60503294 8.65719309 -3.60503294 8.65719309 -0.6875 10 C3.18985089 11.90502687 6.25708312 13.60555891 9 17 C9 20.5625 9 20.5625 8 24 C4.26077346 27.73922654 0.30326772 28.19023637 -4.8125 28.3125 C-10.82969535 28.28336104 -13.74325972 27.25674028 -18 23 C-18.125 20.5 -18.125 20.5 -18 18 C-17 17 -17 17 -14.75 16.4375 C-12 17 -12 17 -10.55859375 18.78515625 C-9.29643102 20.82403451 -8.1137489 22.87676805 -7 25 C-5.35 24.67 -3.7 24.34 -2 24 C-2.00799528 22.09833387 -2.00799528 22.09833387 -3 20 C-5.92182439 18.07874547 -5.92182439 18.07874547 -9.4375 16.4375 C-15.79836512 13.30245232 -15.79836512 13.30245232 -18 10 C-17.92294585 6.37845489 -17.39195279 4.51359331 -15.1875 1.625 C-10.32151535 -0.85569806 -5.35935287 -0.79107469 0 0 Z " fill="#1B3128" transform="translate(584,610)"/>
<path d="M0 0 C3.81836388 1.77751422 5.49659011 2.67854904 7 6.625 C7 7.40875 7 8.1925 7 9 C5 11 5 11 1.875 11.125 C0.92625 11.08375 -0.0225 11.0425 -1 11 C-1.99 8.36 -2.98 5.72 -4 3 C-6.47266765 3.34444881 -6.47266765 3.34444881 -9 4 C-10.72814239 7.45628479 -10.35633298 11.21396205 -10 15 C-8.26768159 19.76387563 -7.64201017 20.67899492 -3 23 C-3.66 20.03 -4.32 17.06 -5 14 C-0.71 14 3.58 14 8 14 C7.58308073 17.93757088 7.22894288 21.28025325 6 25 C1.20916433 28.42202548 -4.20745361 28.93131046 -10 28 C-14.33769055 26.3670856 -17.60250301 23.99582831 -20 20 C-20.77595162 15.35722281 -21.09446313 10.27578842 -19.015625 5.953125 C-13.85451769 -0.48232979 -7.75018985 -0.9071754 0 0 Z " fill="#1B3128" transform="translate(415,610)"/>
<path d="M0 0 C3.90276354 -0.80132787 7.11959757 -0.99322722 11 0 C14.97481372 3.59150935 17.97841885 7.59543919 21 12 C21.04125 10.741875 21.0825 9.48375 21.125 8.1875 C21.14820313 7.47980469 21.17140625 6.77210938 21.1953125 6.04296875 C21.13254462 3.68640281 21.13254462 3.68640281 19 1 C20 0 20 0 21.84765625 -0.09765625 C23.8984375 -0.06510417 25.94921875 -0.03255208 28 0 C28 0.99 28 1.98 28 3 C27.67 3.33 27.34 3.66 27 4 C26.92524484 5.550422 26.91675945 7.10416542 26.9375 8.65625 C26.94523437 9.59597656 26.95296875 10.53570313 26.9609375 11.50390625 C26.97382813 12.49261719 26.98671875 13.48132813 27 14.5 C27.02539586 16.44786253 27.04646739 18.39578791 27.0625 20.34375 C27.07410156 21.21193359 27.08570313 22.08011719 27.09765625 22.97460938 C27 25 27 25 26 26 C23.296875 26.42578125 23.296875 26.42578125 20 26 C17.78913424 24.09357163 16.09067648 22.39784142 14.25 20.1875 C13.76917969 19.64029297 13.28835938 19.09308594 12.79296875 18.52929688 C10.68396442 16.10599803 8.78339472 13.67509208 7 11 C7 14.63 7 18.26 7 22 C7.66 22.33 8.32 22.66 9 23 C8.67 23.99 8.34 24.98 8 26 C5.69 26 3.38 26 1 26 C1 23.27006134 1.01060694 20.5421351 1.03515625 17.8125 C1.04442123 16.20833419 1.05353101 14.60416749 1.0625 13 C1.07087891 12.19304688 1.07925781 11.38609375 1.08789062 10.5546875 C1.09111328 9.77351562 1.09433594 8.99234375 1.09765625 8.1875 C1.10289307 7.47980469 1.10812988 6.77210938 1.11352539 6.04296875 C0.99537769 3.91681836 0.58084992 2.04431609 0 0 Z " fill="#1B332A" transform="translate(247,611)"/>
<path d="M0 0 C4.95 0 9.9 0 15 0 C16.10868317 3.32604951 16.54177532 6.53058454 17 10 C17.66 10 18.32 10 19 10 C19.66 7.69 20.32 5.38 21 3 C20.34 3 19.68 3 19 3 C19.33 2.01 19.66 1.02 20 0 C22.97 0 25.94 0 29 0 C29 0.99 29 1.98 29 3 C27.34211215 4.34423339 25.67423683 5.67618483 24 7 C21.97357892 9.32005031 21.97357892 9.32005031 21 12 C21.80267365 17.21737874 26.06166116 19.93567753 30 23 C29.67 23.99 29.34 24.98 29 26 C24.38 26 19.76 26 15 26 C14.28385417 23.68880208 13.56770833 21.37760417 12.8515625 19.06640625 C12.19117773 16.82201984 12.19117773 16.82201984 10 16 C8.68373308 19.61973402 8 22.09567131 8 26 C5.36 26 2.72 26 0 26 C0 22 0 22 2.375 19.4375 C3.24125 18.633125 4.1075 17.82875 5 17 C7.25641931 14.26167198 7.25641931 14.26167198 6.875 11.5625 C5.42678224 7.32129084 2.64564798 5.43043199 -1 3 C-0.67 2.01 -0.34 1.02 0 0 Z " fill="#172F26" transform="translate(425,611)"/>
<path d="M0 0 C3.97915159 -0.02886984 7.95827653 -0.04675406 11.9375 -0.0625 C13.07380859 -0.07087891 14.21011719 -0.07925781 15.38085938 -0.08789062 C16.46044922 -0.09111328 17.54003906 -0.09433594 18.65234375 -0.09765625 C20.15269165 -0.10551147 20.15269165 -0.10551147 21.68334961 -0.11352539 C24 0 24 0 25 1 C25.04080783 2.99958364 25.04254356 5.00045254 25 7 C24.01 7.33 23.02 7.66 22 8 C21.62875 7.175 21.2575 6.35 20.875 5.5 C20.25625 4.675 19.6375 3.85 19 3 C15.87364791 2.58253392 15.87364791 2.58253392 13 3 C12.67 5.97 12.34 8.94 12 12 C12.598125 11.34 13.19625 10.68 13.8125 10 C16 8 16 8 19 8 C19 11.3 19 14.6 19 18 C18.01 18.33 17.02 18.66 16 19 C14.68 17.68 13.36 16.36 12 15 C12.33 17.31 12.66 19.62 13 22 C15.64 22 18.28 22 21 22 C21.66 20.68 22.32 19.36 23 18 C23.99 18 24.98 18 26 18 C26.04241723 20.33294775 26.04092937 22.66702567 26 25 C25 26 25 26 22.68334961 26.11352539 C21.68311768 26.10828857 20.68288574 26.10305176 19.65234375 26.09765625 C18.57275391 26.09443359 17.49316406 26.09121094 16.38085938 26.08789062 C15.24455078 26.07951172 14.10824219 26.07113281 12.9375 26.0625 C11.79732422 26.05798828 10.65714844 26.05347656 9.48242188 26.04882812 C6.65489649 26.03699747 3.8274736 26.0205141 1 26 C1 23.27006134 1.01060694 20.5421351 1.03515625 17.8125 C1.04442123 16.20833419 1.05353101 14.60416749 1.0625 13 C1.07087891 12.19304688 1.07925781 11.38609375 1.08789062 10.5546875 C1.09111328 9.77351562 1.09433594 8.99234375 1.09765625 8.1875 C1.10289307 7.47980469 1.10812988 6.77210938 1.11352539 6.04296875 C0.99537769 3.91681836 0.58084992 2.04431609 0 0 Z " fill="#1A3128" transform="translate(537,611)"/>
<path d="M0 0 C3.6875 0.3125 3.6875 0.3125 5.6953125 1.796875 C8.39685764 5.20823788 9.72956022 8.82618846 11.25 12.875 C11.82743241 14.39988249 12.41183286 15.92214857 13.00390625 17.44140625 C13.25599854 18.11244385 13.50809082 18.78348145 13.76782227 19.47485352 C14.78991513 21.51713995 16.00054213 22.79090121 17.6875 24.3125 C17.3575 25.3025 17.0275 26.2925 16.6875 27.3125 C12.7275 27.3125 8.7675 27.3125 4.6875 27.3125 C3.6875 24.3125 3.6875 24.3125 4.6875 20.3125 C1.0575 20.3125 -2.5725 20.3125 -6.3125 20.3125 C-5.6525 22.2925 -4.9925 24.2725 -4.3125 26.3125 C-5.3125 27.3125 -5.3125 27.3125 -8.875 27.375 C-10.009375 27.354375 -11.14375 27.33375 -12.3125 27.3125 C-12.3125 25.9925 -12.3125 24.6725 -12.3125 23.3125 C-11.6525 23.3125 -10.9925 23.3125 -10.3125 23.3125 C-10.13074219 22.67183594 -9.94898438 22.03117188 -9.76171875 21.37109375 C-8.57955069 17.30322315 -7.41239768 13.34716071 -5.625 9.5 C-4.35511775 6.41600024 -4.120219 4.58127693 -4.3125 1.3125 C-3.3125 0.3125 -3.3125 0.3125 0 0 Z " fill="#172F26" transform="translate(469.3125,609.6875)"/>
<path d="M0 0 C3.625 0.25 3.625 0.25 5.24414062 1.5078125 C6.76122059 3.4218653 7.51908397 5.07991949 8.34375 7.375 C8.78267578 8.55835938 8.78267578 8.55835938 9.23046875 9.765625 C9.82682292 11.421875 10.42317708 13.078125 11.01953125 14.734375 C11.45845703 15.91773438 11.45845703 15.91773438 11.90625 17.125 C12.16470703 17.84429688 12.42316406 18.56359375 12.68945312 19.3046875 C13.70795153 21.42248376 14.88148104 22.6947713 16.625 24.25 C16.295 25.24 15.965 26.23 15.625 27.25 C11.665 27.25 7.705 27.25 3.625 27.25 C2.625 24.25 2.625 24.25 3.625 20.25 C-1.325 20.745 -1.325 20.745 -6.375 21.25 C-6.189375 22.054375 -6.00375 22.85875 -5.8125 23.6875 C-5.668125 24.533125 -5.52375 25.37875 -5.375 26.25 C-6.375 27.25 -6.375 27.25 -9.9375 27.3125 C-11.071875 27.291875 -12.20625 27.27125 -13.375 27.25 C-13.705 26.26 -14.035 25.27 -14.375 24.25 C-13.48554687 23.47462891 -13.48554687 23.47462891 -12.578125 22.68359375 C-9.92923442 19.75760292 -8.65943712 16.94322622 -7.125 13.3125 C-6.60421875 12.10722656 -6.0834375 10.90195312 -5.546875 9.66015625 C-4.47167127 6.53131339 -4.20755607 4.49721627 -4.375 1.25 C-3.375 0.25 -3.375 0.25 0 0 Z " fill="#162E25" transform="translate(751.375,609.75)"/>
<path d="M0 0 C1.02996094 -0.00128906 2.05992187 -0.00257813 3.12109375 -0.00390625 C4.74724609 0.00189453 4.74724609 0.00189453 6.40625 0.0078125 C7.49035156 0.00394531 8.57445312 0.00007812 9.69140625 -0.00390625 C10.72136719 -0.00261719 11.75132812 -0.00132812 12.8125 0 C14.24045898 0.00169189 14.24045898 0.00169189 15.69726562 0.00341797 C17.90625 0.1328125 17.90625 0.1328125 18.90625 1.1328125 C18.94705783 3.13239614 18.94879356 5.13326504 18.90625 7.1328125 C17.91625 7.4628125 16.92625 7.7928125 15.90625 8.1328125 C15.535 7.3078125 15.16375 6.4828125 14.78125 5.6328125 C14.1625 4.8078125 13.54375 3.9828125 12.90625 3.1328125 C9.77989791 2.71534642 9.77989791 2.71534642 6.90625 3.1328125 C6.57625 6.1028125 6.24625 9.0728125 5.90625 12.1328125 C6.504375 11.4728125 7.1025 10.8128125 7.71875 10.1328125 C9.90625 8.1328125 9.90625 8.1328125 12.90625 8.1328125 C12.90625 11.4328125 12.90625 14.7328125 12.90625 18.1328125 C11.91625 18.1328125 10.92625 18.1328125 9.90625 18.1328125 C9.57625 17.4728125 9.24625 16.8128125 8.90625 16.1328125 C7.91625 15.8028125 6.92625 15.4728125 5.90625 15.1328125 C6.23625 17.4428125 6.56625 19.7528125 6.90625 22.1328125 C9.54625 22.1328125 12.18625 22.1328125 14.90625 22.1328125 C15.56625 20.8128125 16.22625 19.4928125 16.90625 18.1328125 C17.89625 18.1328125 18.88625 18.1328125 19.90625 18.1328125 C19.94866723 20.46576025 19.94717937 22.79983817 19.90625 25.1328125 C18.90625 26.1328125 18.90625 26.1328125 16.58959961 26.24633789 C15.58936768 26.24110107 14.58913574 26.23586426 13.55859375 26.23046875 C12.47900391 26.22724609 11.39941406 26.22402344 10.28710938 26.22070312 C9.15080078 26.21232422 8.01449219 26.20394531 6.84375 26.1953125 C5.70357422 26.19080078 4.56339844 26.18628906 3.38867188 26.18164062 C0.56114649 26.16980997 -2.2662764 26.1533266 -5.09375 26.1328125 C-5.09375 22.1328125 -5.09375 22.1328125 -4.09375 21.1328125 C-3.96685943 18.32941615 -3.9085407 15.56163407 -3.90625 12.7578125 C-3.89400391 11.97664062 -3.88175781 11.19546875 -3.86914062 10.390625 C-3.85903574 6.45645727 -3.86436633 4.47688801 -6.09375 1.1328125 C-4.40858046 -0.55235704 -2.30607212 0.00273231 0 0 Z " fill="#132B22" transform="translate(629.09375,610.8671875)"/>
<path d="M0 0 C2.78462121 1.63548814 4.88368318 3.57309744 7 6 C6.125 10.875 6.125 10.875 5 12 C2.5625 12.1875 2.5625 12.1875 0 12 C-2.5654594 9.4345406 -2.54046087 7.52313332 -3 4 C-5.41645782 3.83312552 -5.41645782 3.83312552 -8 4 C-10.38224928 6.38224928 -10.32017149 7.0502037 -10.375 10.3125 C-10.28521655 13.59223646 -9.99437767 15.01079487 -8.4375 18 C-5.18156016 20.67154038 -3.20155864 21.14742311 1 21 C3.83411155 18.666508 3.83411155 18.666508 6 16 C6.66 16 7.32 16 8 16 C7.91651691 18.83842501 7.4276272 20.54049314 5.48046875 22.6328125 C1.59841189 26.01633153 -1.02433467 27.81361648 -6.3125 28.3125 C-11.38517063 27.88261266 -14.04686239 25.68373932 -17.8125 22.4375 C-20.42658812 19.27307754 -20.50506388 15.35951449 -20.4921875 11.42578125 C-19.57913022 6.92571322 -16.34743043 3.96876183 -13 1 C-9.00866637 -0.99566682 -4.32647425 -0.65966846 0 0 Z " fill="#1A3128" transform="translate(729,610)"/>
<path d="M0 0 C1.12591553 0.00523682 2.25183105 0.01047363 3.41186523 0.01586914 C4.62680664 0.0190918 5.84174805 0.02231445 7.09350586 0.02563477 C8.37290039 0.03401367 9.65229492 0.04239258 10.97045898 0.05102539 C12.2537207 0.05553711 13.53698242 0.06004883 14.85913086 0.06469727 C18.04211921 0.07652994 21.22501661 0.09301471 24.40795898 0.11352539 C25.9009311 3.09946963 25.52551126 5.82206163 25.40795898 9.11352539 C25.07795898 9.77352539 24.74795898 10.43352539 24.40795898 11.11352539 C23.41795898 10.78352539 22.42795898 10.45352539 21.40795898 10.11352539 C20.22045898 6.55102539 20.22045898 6.55102539 19.40795898 3.11352539 C18.41795898 3.11352539 17.42795898 3.11352539 16.40795898 3.11352539 C16.40795898 3.66814453 16.40795898 4.22276367 16.40795898 4.79418945 C16.40795898 11.90063477 16.40795898 19.00708008 16.40795898 26.11352539 C12.44795898 26.11352539 8.48795898 26.11352539 4.40795898 26.11352539 C4.40795898 23.17032637 4.47617571 20.28329932 4.62670898 17.34790039 C4.67182617 16.45844727 4.71694336 15.56899414 4.76342773 14.65258789 C4.81112305 13.73219727 4.85881836 12.81180664 4.90795898 11.86352539 C4.9556543 10.92766602 5.00334961 9.99180664 5.05249023 9.02758789 C5.17007876 6.72285273 5.28860001 4.41816943 5.40795898 2.11352539 C3.43612879 2.47419166 3.43612879 2.47419166 1.40795898 3.11352539 C0.27725454 4.96080106 0.27725454 4.96080106 -0.34204102 7.17602539 C-0.58438477 7.90950195 -0.82672852 8.64297852 -1.07641602 9.39868164 C-1.24657227 9.96458008 -1.41672852 10.53047852 -1.59204102 11.11352539 C-2.25204102 10.78352539 -2.91204102 10.45352539 -3.59204102 10.11352539 C-3.61893318 8.63445647 -3.63838723 7.15525056 -3.65454102 5.67602539 C-3.66614258 4.85231445 -3.67774414 4.02860352 -3.68969727 3.17993164 C-3.54235796 0.06223196 -3.13783134 0.13742974 0 0 Z " fill="#1D362D" transform="translate(280.592041015625,610.886474609375)"/>
<path d="M0 0 C1.21042969 -0.00128906 2.42085937 -0.00257813 3.66796875 -0.00390625 C4.94285156 -0.00003906 6.21773437 0.00382813 7.53125 0.0078125 C9.44357422 0.00201172 9.44357422 0.00201172 11.39453125 -0.00390625 C13.21017578 -0.00197266 13.21017578 -0.00197266 15.0625 0 C16.18205078 0.00112793 17.30160156 0.00225586 18.45507812 0.00341797 C21.03125 0.1328125 21.03125 0.1328125 22.03125 1.1328125 C22.27005597 8.65520056 22.27005597 8.65520056 21.03125 11.1328125 C20.37125 11.1328125 19.71125 11.1328125 19.03125 11.1328125 C18.04125 8.4928125 17.05125 5.8528125 16.03125 3.1328125 C15.04125 3.1328125 14.05125 3.1328125 13.03125 3.1328125 C12.70125 9.4028125 12.37125 15.6728125 12.03125 22.1328125 C13.02125 22.4628125 14.01125 22.7928125 15.03125 23.1328125 C14.70125 24.1228125 14.37125 25.1128125 14.03125 26.1328125 C9.74125 26.1328125 5.45125 26.1328125 1.03125 26.1328125 C0.70125 25.1428125 0.37125 24.1528125 0.03125 23.1328125 C0.69125 22.8028125 1.35125 22.4728125 2.03125 22.1328125 C2.03125 15.8628125 2.03125 9.5928125 2.03125 3.1328125 C0.71125 3.4628125 -0.60875 3.7928125 -1.96875 4.1328125 C-2.62875 6.4428125 -3.28875 8.7528125 -3.96875 11.1328125 C-4.62875 11.1328125 -5.28875 11.1328125 -5.96875 11.1328125 C-7.59526522 7.87978206 -7.08328156 4.74055648 -6.96875 1.1328125 C-5.16595809 -0.66997941 -2.42827299 0.00244645 0 0 Z " fill="#132C23" transform="translate(656.96875,610.8671875)"/>
<path d="M0 0 C1.12591553 0.00523682 2.25183105 0.01047363 3.41186523 0.01586914 C4.62680664 0.0190918 5.84174805 0.02231445 7.09350586 0.02563477 C8.37290039 0.03401367 9.65229492 0.04239258 10.97045898 0.05102539 C12.2537207 0.05553711 13.53698242 0.06004883 14.85913086 0.06469727 C18.04211921 0.07652994 21.22501661 0.09301471 24.40795898 0.11352539 C24.6028735 1.57088626 24.78865256 3.02947132 24.97045898 4.48852539 C25.07487305 5.30063477 25.17928711 6.11274414 25.28686523 6.94946289 C25.40795898 9.11352539 25.40795898 9.11352539 24.40795898 11.11352539 C23.74795898 11.11352539 23.08795898 11.11352539 22.40795898 11.11352539 C21.41795898 8.47352539 20.42795898 5.83352539 19.40795898 3.11352539 C18.41795898 3.11352539 17.42795898 3.11352539 16.40795898 3.11352539 C16.40795898 3.66814453 16.40795898 4.22276367 16.40795898 4.79418945 C16.40795898 11.90063477 16.40795898 19.00708008 16.40795898 26.11352539 C12.44795898 26.11352539 8.48795898 26.11352539 4.40795898 26.11352539 C4.40795898 22.11352539 4.40795898 22.11352539 5.40795898 21.11352539 C5.49447509 19.69782416 5.51500802 18.27793039 5.50561523 16.85961914 C5.50239258 16.00561523 5.49916992 15.15161133 5.49584961 14.27172852 C5.4874707 13.37389648 5.4790918 12.47606445 5.47045898 11.55102539 C5.46594727 10.64932617 5.46143555 9.74762695 5.45678711 8.81860352 C5.44496123 6.58351225 5.42848119 4.34855102 5.40795898 2.11352539 C3.43612879 2.47419166 3.43612879 2.47419166 1.40795898 3.11352539 C0.27725454 4.96080106 0.27725454 4.96080106 -0.34204102 7.17602539 C-0.58438477 7.90950195 -0.82672852 8.64297852 -1.07641602 9.39868164 C-1.24657227 9.96458008 -1.41672852 10.53047852 -1.59204102 11.11352539 C-2.25204102 10.78352539 -2.91204102 10.45352539 -3.59204102 10.11352539 C-3.61893318 8.63445647 -3.63838723 7.15525056 -3.65454102 5.67602539 C-3.66614258 4.85231445 -3.67774414 4.02860352 -3.68969727 3.17993164 C-3.54235796 0.06223196 -3.13783134 0.13742974 0 0 Z " fill="#142B22" transform="translate(597.592041015625,610.886474609375)"/>
<path d="M0 0 C4.21859512 0.57902286 5.54373047 2.1894403 8.1875 5.4375 C10.18093293 11.41779879 10.0096265 18.16686489 7.875 24.0625 C6.1875 26.4375 6.1875 26.4375 3.1875 28.4375 C-0.4375 28.625 -0.4375 28.625 -3.8125 28.4375 C-6.40205157 25.84794843 -4.99808792 18.48572397 -5 15 C-5.01224609 13.82888672 -5.02449219 12.65777344 -5.03710938 11.45117188 C-5.03904297 10.33419922 -5.04097656 9.21722656 -5.04296875 8.06640625 C-5.04707764 7.03588135 -5.05118652 6.00535645 -5.05541992 4.94360352 C-4.69579811 1.23353526 -3.61556704 0.56242154 0 0 Z " fill="#F2FAFD" transform="translate(255.8125,540.5625)"/>
<path d="M0 0 C4.62 0 9.24 0 14 0 C13.67 1.32 13.34 2.64 13 4 C12.92233916 5.44098431 12.89203633 6.88508629 12.90234375 8.328125 C12.90556641 9.12734375 12.90878906 9.9265625 12.91210938 10.75 C12.92048828 11.575 12.92886719 12.4 12.9375 13.25 C12.94201172 14.09046875 12.94652344 14.9309375 12.95117188 15.796875 C12.96292039 17.86461401 12.98085478 19.93231624 13 22 C14.65 22 16.3 22 18 22 C18.99 19.69 19.98 17.38 21 15 C21.99 15.33 22.98 15.66 24 16 C24.1953125 22.0546875 24.1953125 22.0546875 24 24 C22 26 22 26 19.84521484 26.22705078 C18.97590332 26.21657715 18.1065918 26.20610352 17.2109375 26.1953125 C16.26992188 26.18886719 15.32890625 26.18242188 14.359375 26.17578125 C13.37453125 26.15902344 12.3896875 26.14226563 11.375 26.125 C10.38242187 26.11597656 9.38984375 26.10695313 8.3671875 26.09765625 C5.91121866 26.07404116 3.45572832 26.04110799 1 26 C1 23.27006134 1.01060694 20.5421351 1.03515625 17.8125 C1.04442123 16.20833419 1.05353101 14.60416749 1.0625 13 C1.07087891 12.19304688 1.07925781 11.38609375 1.08789062 10.5546875 C1.09111328 9.77351562 1.09433594 8.99234375 1.09765625 8.1875 C1.10289307 7.47980469 1.10812988 6.77210938 1.11352539 6.04296875 C1.04458231 3.64471234 1.04458231 3.64471234 0 0 Z " fill="#183027" transform="translate(337,611)"/>
<path d="M0 0 C2.8125 -0.5 2.8125 -0.5 6 0 C8.57285724 2.172635 10.48996919 3.97993838 12 7 C12.97354694 20.554769 12.97354694 20.554769 9 26 C5.3558226 28.4294516 3.28758728 28.16179575 -1 28 C-2.9943416 24.0113168 -2.18485036 18.94765918 -2.1875 14.5625 C-2.19974609 13.49966797 -2.21199219 12.43683594 -2.22460938 11.34179688 C-2.22654297 10.32279297 -2.22847656 9.30378906 -2.23046875 8.25390625 C-2.23457764 7.31877197 -2.23868652 6.3836377 -2.24291992 5.42016602 C-2 3 -2 3 0 0 Z " fill="#F3FBFD" transform="translate(566,541)"/>
<path d="M0 0 C4.51315789 2.02631579 4.51315789 2.02631579 6 5 C6.58394161 12.24087591 6.58394161 12.24087591 4.125 15.4375 C-0.32826548 18.71195991 -4.60558862 18.72696509 -10 18 C-13.73611127 16.26990456 -15.63677037 13.89851541 -17.1875 10.0625 C-16.91383063 5.59256689 -15.13931157 4.13931157 -12 1 C-8.31833802 -0.84083099 -4.02754194 -0.36729156 0 0 Z " fill="#0F66AC" transform="translate(620,531)"/>
<path d="M0 0 C4.62 0 9.24 0 14 0 C14 1.65 14 3.3 14 5 C15.43990623 7.17032476 15.43990623 7.17032476 17 9 C17 9.66 17 10.32 17 11 C17.66 11 18.32 11 19 11 C20.80230168 7.17010894 21.19622241 4.21878192 21 0 C23.64 0 26.28 0 29 0 C28.67 0.99 28.34 1.98 28 3 C27.34 3 26.68 3 26 3 C25.731875 3.70125 25.46375 4.4025 25.1875 5.125 C24 8 24 8 22.375 10.8125 C20.60818131 14.90830697 20.7849764 17.55617898 21 22 C21 23.32 21 24.64 21 26 C16.71 26 12.42 26 8 26 C8.33 24.68 8.66 23.36 9 22 C9.89611946 14.57501021 7.50452026 9.89642798 3 4 C2.01 3.34 1.02 2.68 0 2 C0 1.34 0 0.68 0 0 Z " fill="#183128" transform="translate(680,611)"/>
<path d="M0 0 C4.62 0 9.24 0 14 0 C14 1.65 14 3.3 14 5 C15.43990623 7.17032476 15.43990623 7.17032476 17 9 C17 9.66 17 10.32 17 11 C17.66 11 18.32 11 19 11 C21.52422051 5.62247801 21.52422051 5.62247801 21 0 C23.64 0 26.28 0 29 0 C28.67 0.99 28.34 1.98 28 3 C27.34 3 26.68 3 26 3 C25.731875 3.70125 25.46375 4.4025 25.1875 5.125 C24 8 24 8 22.375 10.8125 C20.60818131 14.90830697 20.7849764 17.55617898 21 22 C21 23.32 21 24.64 21 26 C16.71 26 12.42 26 8 26 C8.33 24.68 8.66 23.36 9 22 C9.89611946 14.57501021 7.50452026 9.89642798 3 4 C2.01 3.34 1.02 2.68 0 2 C0 1.34 0 0.68 0 0 Z " fill="#172F26" transform="translate(497,611)"/>
<path d="M0 0 C2.6875 0.375 2.6875 0.375 4.75 2.125 C9.58958232 10.24300905 12.13239103 19.89882115 11.6875 29.375 C11.0275 30.365 10.3675 31.355 9.6875 32.375 C7.00648783 32.78746341 5.42680976 32.91690244 3.1953125 31.28125 C-3.06165654 23.37088499 -4.4057428 11.02677215 -3.3125 1.375 C-2.3125 0.375 -2.3125 0.375 0 0 Z " fill="#EFF8FC" transform="translate(655.3125,555.625)"/>
<path d="M0 0 C1.10021484 -0.05607422 1.10021484 -0.05607422 2.22265625 -0.11328125 C4.3671875 -0.1484375 4.3671875 -0.1484375 8.125 0.375 C10.1953125 2.7109375 10.1953125 2.7109375 11.125 5.375 C10.795 6.365 10.465 7.355 10.125 8.375 C9.691875 7.55 9.25875 6.725 8.8125 5.875 C8.255625 5.05 7.69875 4.225 7.125 3.375 C6.135 3.375 5.145 3.375 4.125 3.375 C4.125 9.645 4.125 15.915 4.125 22.375 C10.0441354 23.49185535 10.0441354 23.49185535 15.125 22.375 C12.72201154 25.0068445 10.91487999 26.26811748 7.22387695 26.48852539 C6.52738037 26.48328857 5.83088379 26.47805176 5.11328125 26.47265625 C3.97729492 26.46782227 3.97729492 26.46782227 2.81835938 26.46289062 C2.03267578 26.45451172 1.24699219 26.44613281 0.4375 26.4375 C-0.35978516 26.43298828 -1.15707031 26.42847656 -1.97851562 26.42382812 C-3.94404257 26.4120585 -5.90953085 26.39412348 -7.875 26.375 C-7.875 22.375 -7.875 22.375 -6.875 21.375 C-6.74810943 18.57160365 -6.6897907 15.80382157 -6.6875 13 C-6.67525391 12.21882812 -6.66300781 11.43765625 -6.65039062 10.6328125 C-6.64028574 6.69864477 -6.64561633 4.71907551 -8.875 1.375 C-6.81766743 -0.68233257 -2.81218511 0.05379832 0 0 Z " fill="#142C23" transform="translate(193.875,610.625)"/>
<path d="M0 0 C0.91007813 0.00902344 1.82015625 0.01804687 2.7578125 0.02734375 C3.80582031 0.04474609 3.80582031 0.04474609 4.875 0.0625 C4.215 1.3825 3.555 2.7025 2.875 4.0625 C1.225 3.7325 -0.425 3.4025 -2.125 3.0625 C-2.5634688 9.6882508 -2.51404606 14.64711895 1 20.40625 C1.875 22.0625 1.875 22.0625 1.875 25.0625 C-1.25 25.875 -1.25 25.875 -5.125 26.0625 C-9.31539095 23.37432468 -11.98481034 20.96531553 -13.125 16.0625 C-13.98078343 9.43017842 -13.98078343 9.43017842 -11.8515625 6.02734375 C-8.05557463 1.51845084 -5.98883313 -0.07677991 0 0 Z " fill="#193027" transform="translate(229.125,610.9375)"/>
<path d="M0 0 C-0.99 0.4640625 -0.99 0.4640625 -2 0.9375 C-4.31289474 3.3226727 -4.34242275 3.9203374 -4.4375 7.125 C-4.19792549 12.01231997 -3.31403558 16.65214409 -1 21 C1.52980707 22.95500857 1.52980707 22.95500857 4 24 C4 24.66 4 25.32 4 26 C-1.10329727 26.36308044 -4.87463833 26.58277658 -9.5 24.1875 C-12.34191528 21.70082413 -13.85118979 20.08553135 -14.37109375 16.29296875 C-14.57243625 6.87724591 -14.57243625 6.87724591 -11.625 3.3125 C-7.56995659 -0.25980015 -5.34727273 -0.09902357 0 0 Z " fill="#142C23" transform="translate(321,611)"/>
<path d="M0 0 C2.375 3 2.375 3 4 6 C3.67 6.66 3.34 7.32 3 8 C2.01 6.68 1.02 5.36 0 4 C-1.65 4.33 -3.3 4.66 -5 5 C-4.57005719 11.25679925 -3.98704935 17.03885194 -2 23 C-1.67 23.99 -1.34 24.98 -1 26 C-3.625 26.8125 -3.625 26.8125 -7 27 C-11.4653421 23.99448128 -14.3143005 21.22824898 -15.44140625 15.921875 C-15.72085843 10.90976486 -14.94731504 8.34034754 -11.625 4.5 C-7.89557523 0.63244839 -5.52315134 -0.77324119 0 0 Z " fill="#193027" transform="translate(377,610)"/>
<path d="M0 0 C-0.66 0.495 -1.32 0.99 -2 1.5 C-4.26487808 4.3310976 -4.57092201 6.11294267 -4.40234375 9.70703125 C-3.63772981 14.06458835 -1.77922329 17.97709754 0 22 C0.33 22.99 0.66 23.98 1 25 C-2.0625 25.875 -2.0625 25.875 -6 26 C-9.3378867 23.98677561 -12.24437292 21.51125416 -14 18 C-14.50536707 12.85519754 -14.86469264 8.46103239 -12.1875 3.9375 C-7.9414947 0.17675245 -5.59903388 -0.2112843 0 0 Z " fill="#142D24" transform="translate(169,611)"/>
<path d="M0 0 C1.75 0.0625 1.75 0.0625 4 1 C8.19902465 7.29853697 10.7145993 13.28232761 10 21 C8.5 23.4375 8.5 23.4375 7 25 C4.49047511 24.65385864 3.24841699 24.24841699 1.4375 22.4375 C-1.85819237 16.84915207 -3.7443462 11.57505814 -3 5 C-1.5 2.0625 -1.5 2.0625 0 0 Z " fill="#EAF5FB" transform="translate(368,557)"/>
<path d="M0 0 C2.04502037 1.55610805 3.84724378 3.20524795 5.51953125 5.15625 C5.18953125 5.81625 4.85953125 6.47625 4.51953125 7.15625 C4.04902344 6.73472656 3.57851563 6.31320312 3.09375 5.87890625 C2.47113281 5.33105469 1.84851563 4.78320312 1.20703125 4.21875 C0.59214844 3.67347656 -0.02273438 3.12820313 -0.65625 2.56640625 C-4.04491844 -0.05309976 -7.52695542 -0.09456082 -11.66796875 -0.40625 C-13.29798828 -0.53193359 -13.29798828 -0.53193359 -14.9609375 -0.66015625 C-15.79238281 -0.72074219 -16.62382812 -0.78132812 -17.48046875 -0.84375 C-17.48046875 -0.18375 -17.48046875 0.47625 -17.48046875 1.15625 C-14.51046875 1.65125 -14.51046875 1.65125 -11.48046875 2.15625 C-11.81046875 3.14625 -12.14046875 4.13625 -12.48046875 5.15625 C-12.48046875 4.49625 -12.48046875 3.83625 -12.48046875 3.15625 C-15.30970217 2.77992102 -15.30970217 2.77992102 -18.48046875 3.15625 C-20.73801412 5.09107751 -20.73801412 5.09107751 -22.54296875 7.65625 C-24.453125 10.1875 -24.453125 10.1875 -26.48046875 12.15625 C-29.36462044 12.53766085 -30.82143044 12.52970504 -33.35546875 11.09375 C-34.48046875 9.15625 -34.48046875 9.15625 -34.60546875 5.71875 C-33.44348969 2.03914963 -33.30028884 1.61107726 -30.23046875 -0.21875 C-21.75318418 -4.5324125 -8.19780069 -5.00083702 0 0 Z " fill="#1765A7" transform="translate(327.48046875,551.84375)"/>
<path d="M0 0 C2.3125 0 2.3125 0 5 1 C8.38661366 5.35900768 10.14208526 10.04915092 10.1875 15.5625 C10.20167969 16.34753906 10.21585937 17.13257813 10.23046875 17.94140625 C10 20 10 20 8 22 C6.125 22 6.125 22 4 21 C-1.00247791 14.71117063 -1.54782055 8.79838671 -1 1 C-0.67 0.67 -0.34 0.34 0 0 Z " fill="#EDF1EF" transform="translate(317,613)"/>
<path d="M0 0 C2.25 0.125 2.25 0.125 5 1 C8.62050983 5.626207 10.14461427 9.23861799 10.1875 15.0625 C10.20167969 15.94035156 10.21585938 16.81820312 10.23046875 17.72265625 C10 20 10 20 8 22 C6.125 22.0625 6.125 22.0625 4 21 C-0.33300576 14.43859127 -1.25131153 9.79065754 -1 2 C-0.67 1.34 -0.34 0.68 0 0 Z " fill="#EEF2F0" transform="translate(165,613)"/>
<path d="M0 0 C0.28525503 3.22705968 0.52188975 6.45593814 0.75 9.6875 C0.87181641 11.05551758 0.87181641 11.05551758 0.99609375 12.45117188 C1.44413244 19.29620745 1.44413244 19.29620745 -0.984375 23.14453125 C-1.64953125 23.75683594 -2.3146875 24.36914062 -3 25 C-3.66 24.67 -4.32 24.34 -5 24 C-4.34 22.68 -3.68 21.36 -3 20 C-5.31 19.01 -7.62 18.02 -10 17 C-10.66608094 13.97295891 -11.12002632 11.10502882 -11 8 C-8.75536714 4.96314378 -4.18059703 0 0 0 Z " fill="#EFF9FC" transform="translate(317,567)"/>
<path d="M0 0 C2.4375 0.0625 2.4375 0.0625 5 1 C8.58686651 5.73978788 9.13172176 9.93537213 9.0625 15.75 C9.05347656 16.73484375 9.04445313 17.7196875 9.03515625 18.734375 C9.02355469 19.48203125 9.01195312 20.2296875 9 21 C7.12890625 21.58203125 7.12890625 21.58203125 5 22 C0.73809972 19.28788164 -0.21372549 15.11185309 -1.46484375 10.4765625 C-2.09726677 7.54987497 -2.37233127 4.97865018 -2 2 C-1.34 1.34 -0.68 0.68 0 0 Z " fill="#F1F4F3" transform="translate(373,613)"/>
<path d="M0 0 C2.94786391 0.58957278 3.69779937 1.13461168 5.5 3.5 C6.49365162 8.84915787 6.36987802 13.2076098 3.3125 17.75 C0.5 19.5 0.5 19.5 -2.3125 19.3125 C-3.034375 19.044375 -3.75625 18.77625 -4.5 18.5 C-6.02814843 13.06521407 -6.3707589 7.74564136 -4.3125 2.4375 C-2.5 0.5 -2.5 0.5 0 0 Z " fill="#F5FCFE" transform="translate(482.5,552.5)"/>
<path d="M0 0 C2.35338221 0.01833043 4.70636786 0.02050788 7.05981445 0.02026367 C33.22670043 0.07837141 33.22670043 0.07837141 45.78833008 2.76831055 C46.47926758 2.90688477 47.17020508 3.04545898 47.88208008 3.18823242 C49.51942808 3.51797612 51.15423568 3.86030388 52.78833008 4.20581055 C52.78833008 4.53581055 52.78833008 4.86581055 52.78833008 5.20581055 C49.18385574 5.06702244 45.57984296 4.9185712 41.97583008 4.76831055 C40.95166992 4.72899414 39.92750977 4.68967773 38.87231445 4.64916992 C37.8894043 4.60727539 36.90649414 4.56538086 35.89379883 4.5222168 C34.98782959 4.48555908 34.08186035 4.44890137 33.1484375 4.41113281 C30.78833008 4.20581055 30.78833008 4.20581055 27.78833008 3.20581055 C26.10278868 3.10834061 24.41368416 3.06763666 22.7253418 3.06054688 C21.17760574 3.0509771 21.17760574 3.0509771 19.59860229 3.04121399 C18.48300934 3.04010117 17.36741638 3.03898834 16.21801758 3.0378418 C14.49181686 3.0328492 14.49181686 3.0328492 12.73074341 3.02775574 C10.29128418 3.02268802 7.851818 3.02034736 5.41235352 3.02050781 C1.69901906 3.01833146 -2.01401345 3.00020188 -5.72729492 2.98120117 C-8.09968974 2.97826511 -10.47208597 2.97628174 -12.84448242 2.9753418 C-13.94792999 2.96815628 -15.05137756 2.96097076 -16.18826294 2.9535675 C-26.32457577 2.57301964 -26.32457577 2.57301964 -35.21166992 6.20581055 C-37.22761574 6.44008832 -39.25014392 6.61917179 -41.27416992 6.76831055 C-42.37889648 6.85209961 -43.48362305 6.93588867 -44.62182617 7.0222168 C-45.47647461 7.08280273 -46.33112305 7.14338867 -47.21166992 7.20581055 C-34.59443187 -1.20568149 -14.66019725 -0.11745242 0 0 Z " fill="#E7FACC" transform="translate(415.211669921875,180.794189453125)"/>
<path d="M0 0 C2.375 0.125 2.375 0.125 5 1 C8.58686651 5.73978788 9.13172176 9.93537213 9.0625 15.75 C9.05347656 16.73484375 9.04445312 17.7196875 9.03515625 18.734375 C9.02355469 19.48203125 9.01195312 20.2296875 9 21 C7.68 21.33 6.36 21.66 5 22 C0.62315406 16.89367974 -1.2881501 13.0210066 -1.1875 6.25 C-1.17783203 4.80367187 -1.17783203 4.80367187 -1.16796875 3.328125 C-1 1 -1 1 0 0 Z " fill="#F4F7F6" transform="translate(227,613)"/>
<path d="M0 0 C1.65 0.33 3.3 0.66 5 1 C5.66 3.31 6.32 5.62 7 8 C7.78375 8.103125 8.5675 8.20625 9.375 8.3125 C12 9 12 9 14 12 C10.37 12 6.74 12 3 12 C3.66 13.32 4.32 14.64 5 16 C5.125 18.75 5.125 18.75 5 21 C2.25362183 20.62118922 1.19950942 20.22167713 -0.6875 18.125 C-3.45305868 13.6474288 -3.5541843 9.11696834 -3 4 C-1.5 1.4375 -1.5 1.4375 0 0 Z " fill="#EEF1F0" transform="translate(407,612)"/>
<path d="M0 0 C0.33 0.66 0.66 1.32 1 2 C-0.07762315 4.81936289 -1.23504509 7.51406095 -2.5 10.25 C-2.88857178 11.10303711 -3.27714355 11.95607422 -3.67749023 12.83496094 C-9.7760421 26.05215243 -16.42350717 39.01614274 -23 52 C-24 49 -24 49 -23.25 47.0390625 C-22.8375 46.24242187 -22.425 45.44578125 -22 44.625 C-18.81743832 38.02874087 -16.66395304 31.16248394 -14.5 24.17431641 C-14.21898437 23.29179199 -13.93796875 22.40926758 -13.6484375 21.5 C-13.40270996 20.7059375 -13.15698242 19.911875 -12.90380859 19.09375 C-11.90755648 16.78584666 -10.94737217 15.57470095 -9 14 C-8.01 13.67 -7.02 13.34 -6 13 C-4.3025965 9.99229216 -4.3025965 9.99229216 -2.8125 6.4375 C-2.01779297 4.64119141 -2.01779297 4.64119141 -1.20703125 2.80859375 C-0.80871094 1.88175781 -0.41039062 0.95492188 0 0 Z " fill="#2466A1" transform="translate(584,450)"/>
<path d="M0 0 C1.9375 0.25 1.9375 0.25 4 1 C6.37310654 4.55965981 6.26915041 6.21962224 6.25 10.4375 C6.25515625 11.57058594 6.2603125 12.70367188 6.265625 13.87109375 C6.01398568 16.83525691 5.54596941 18.50313671 4 21 C2.35 20.67 0.7 20.34 -1 20 C-1.02888514 16.85418577 -1.04675923 13.70840531 -1.0625 10.5625 C-1.07087891 9.66466797 -1.07925781 8.76683594 -1.08789062 7.84179688 C-1.09111328 6.98779297 -1.09433594 6.13378906 -1.09765625 5.25390625 C-1.10551147 4.06776733 -1.10551147 4.06776733 -1.11352539 2.85766602 C-1 1 -1 1 0 0 Z " fill="#EBEFEE" transform="translate(198,613)"/>
<path d="M0 0 C0.33 0.66 0.66 1.32 1 2 C0.67 2.66 0.34 3.32 0 4 C1.32 4.33 2.64 4.66 4 5 C2.9171875 5.61875 2.9171875 5.61875 1.8125 6.25 C-1.03790841 7.90297605 -1.03790841 7.90297605 -3.3125 10.125 C-6.80448196 12.56126648 -9.74601926 13.36629188 -14 13 C-17.79560358 11.03190926 -19.6288722 9.5566917 -22 6 C-20.62328125 5.97873047 -20.62328125 5.97873047 -19.21875 5.95703125 C-11.26811871 5.64802562 -6.31338086 4.92443707 0 0 Z " fill="#E9F6FB" transform="translate(503,569)"/>
<path d="M0 0 C2.00720923 0.28674418 4.0085944 0.61866701 6 1 C6.33 2.98 6.66 4.96 7 7 C3.07268271 10.6299088 -0.70104376 12.05651165 -5.8125 13.25 C-6.50537109 13.42273438 -7.19824219 13.59546875 -7.91210938 13.7734375 C-9.60525594 14.19380492 -11.30227443 14.59852527 -13 15 C-13 14.34 -13 13.68 -13 13 C-12.42636719 12.77441406 -11.85273438 12.54882812 -11.26171875 12.31640625 C-8.36859833 10.63250024 -6.8443445 8.58690323 -4.8125 5.9375 C-4.11769531 5.03902344 -3.42289062 4.14054688 -2.70703125 3.21484375 C-2.14371094 2.48394531 -1.58039063 1.75304687 -1 1 C-0.67 0.67 -0.34 0.34 0 0 Z " fill="#F1FAFD" transform="translate(309,554)"/>
<path d="M0 0 C4.95590974 4.05483524 4.95590974 4.05483524 5.42578125 6.84375 C5.40902344 7.6171875 5.39226562 8.390625 5.375 9.1875 C5.37113281 9.9609375 5.36726563 10.734375 5.36328125 11.53125 C5.0625 13.6875 5.0625 13.6875 3.0625 16.6875 C2.4025 16.3575 1.7425 16.0275 1.0625 15.6875 C1.5884375 14.3571875 1.5884375 14.3571875 2.125 13 C3.09678462 9.56636099 3.23016267 8.0108476 2.0625 4.6875 C1.08728463 2.79399669 1.08728463 2.79399669 -0.9375 1.6875 C-5.07811126 0.96453613 -8.73516407 0.6875 -12.9375 0.6875 C-12.9375 2.0075 -12.9375 3.3275 -12.9375 4.6875 C-14.60416667 6.35416667 -16.27083333 8.02083333 -17.9375 9.6875 C-20.7504593 15.06998943 -21.44441799 19.60387973 -21.625 25.625 C-21.65916016 26.40423828 -21.69332031 27.18347656 -21.72851562 27.98632812 C-21.8101071 29.88624393 -21.87549885 31.78684403 -21.9375 33.6875 C-22.2675 33.6875 -22.5975 33.6875 -22.9375 33.6875 C-23.69020628 8.59729071 -23.69020628 8.59729071 -18.53125 1.84765625 C-13.25366891 -2.64575595 -6.14905953 -2.74745213 0 0 Z " fill="#155D9C" transform="translate(451.9375,549.3125)"/>
<path d="M0 0 C1.12591553 0.00523682 2.25183105 0.01047363 3.41186523 0.01586914 C4.62680664 0.0190918 5.84174805 0.02231445 7.09350586 0.02563477 C8.37290039 0.03401367 9.65229492 0.04239258 10.97045898 0.05102539 C12.2537207 0.05553711 13.53698242 0.06004883 14.85913086 0.06469727 C18.04211921 0.07652994 21.22501661 0.09301471 24.40795898 0.11352539 C25.9009311 3.09946963 25.52551126 5.82206163 25.40795898 9.11352539 C25.07795898 9.77352539 24.74795898 10.43352539 24.40795898 11.11352539 C23.41795898 10.78352539 22.42795898 10.45352539 21.40795898 10.11352539 C20.22045898 6.55102539 20.22045898 6.55102539 19.40795898 3.11352539 C16.34332995 2.21967526 13.59614519 1.97880531 10.40795898 1.98852539 C9.56233398 1.98594727 8.71670898 1.98336914 7.84545898 1.98071289 C4.53913635 2.15547137 4.53913635 2.15547137 1.40795898 3.11352539 C0.27725454 4.96080106 0.27725454 4.96080106 -0.34204102 7.17602539 C-0.58438477 7.90950195 -0.82672852 8.64297852 -1.07641602 9.39868164 C-1.24657227 9.96458008 -1.41672852 10.53047852 -1.59204102 11.11352539 C-2.25204102 10.78352539 -2.91204102 10.45352539 -3.59204102 10.11352539 C-3.61893318 8.63445647 -3.63838723 7.15525056 -3.65454102 5.67602539 C-3.66614258 4.85231445 -3.67774414 4.02860352 -3.68969727 3.17993164 C-3.54235796 0.06223196 -3.13783134 0.13742974 0 0 Z " fill="#04140C" transform="translate(280.592041015625,610.886474609375)"/>
<path d="M0 0 C2.50298434 2.93828597 3.46930939 5.17902761 4 9 C1.36 9.33 -1.28 9.66 -4 10 C-3.814375 11.134375 -3.62875 12.26875 -3.4375 13.4375 C-3.293125 14.613125 -3.14875 15.78875 -3 17 C-4 18 -4 18 -7.5625 18.0625 C-8.696875 18.041875 -9.83125 18.02125 -11 18 C-11 16.68 -11 15.36 -11 14 C-10.34 14 -9.68 14 -9 14 C-8.80664062 13.30132813 -8.61328125 12.60265625 -8.4140625 11.8828125 C-8.15367187 10.97273437 -7.89328125 10.06265625 -7.625 9.125 C-7.36976563 8.22007812 -7.11453125 7.31515625 -6.8515625 6.3828125 C-6 4 -6 4 -4 2 C-4 2.99 -4 3.98 -4 5 C-1.48916886 3.74458443 -1.12874554 2.49936512 0 0 Z " fill="#1E3129" transform="translate(468,619)"/>
<path d="M0 0 C1.30253929 3.90761786 0.18964491 6.45439902 -1.01953125 10.22265625 C-1.2381633 10.9239415 -1.45679535 11.62522675 -1.68205261 12.34776306 C-2.14617544 13.82928882 -2.61465722 15.30945503 -3.0871582 16.78833008 C-3.80979615 19.05402259 -4.51622805 21.32430618 -5.22070312 23.59570312 C-5.67352175 25.03415591 -6.12726682 26.47231744 -6.58203125 27.91015625 C-6.79358353 28.59038345 -7.0051358 29.27061066 -7.22309875 29.97145081 C-8.16602345 32.89752803 -8.79407021 34.79407021 -11 37 C-9.48020523 29.45701858 -7.26246686 22.24753545 -4.875 14.9375 C-4.50246094 13.78572266 -4.12992188 12.63394531 -3.74609375 11.44726562 C-2.83437981 8.63030331 -1.9189396 5.81461174 -1 3 C-1.56847656 3.144375 -2.13695312 3.28875 -2.72265625 3.4375 C-3.88087891 3.7159375 -3.88087891 3.7159375 -5.0625 4 C-5.81660156 4.185625 -6.57070313 4.37125 -7.34765625 4.5625 C-10 5 -10 5 -17 5 C-17.99 12.26 -18.98 19.52 -20 27 C-20.33 27 -20.66 27 -21 27 C-21.51561543 10.32843437 -21.51561543 10.32843437 -19 5 C-15.18891498 2.8982987 -10.92270509 2.24578983 -6.6875 1.375 C-5.43324219 1.11460937 -4.17898438 0.85421875 -2.88671875 0.5859375 C-1.93410156 0.39257812 -0.98148438 0.19921875 0 0 Z " fill="#165E9A" transform="translate(617,360)"/>
<path d="M0 0 C4.62 0 9.24 0 14 0 C14 1.65 14 3.3 14 5 C15.43990623 7.17032476 15.43990623 7.17032476 17 9 C17 9.66 17 10.32 17 11 C17.66 11 18.32 11 19 11 C20.80230168 7.17010894 21.19622241 4.21878192 21 0 C23.64 0 26.28 0 29 0 C28.67 0.99 28.34 1.98 28 3 C27.34 3 26.68 3 26 3 C25.731875 3.70125 25.46375 4.4025 25.1875 5.125 C23.9318551 8.1649824 22.49764877 11.0727774 21 14 C16.93194482 13.07015882 15.34543308 11.40336874 13.1875 8 C11 4.33846154 11 4.33846154 11 2 C7.37 2 3.74 2 0 2 C0 1.34 0 0.68 0 0 Z " fill="#16261D" transform="translate(680,611)"/>
<path d="M0 0 C0.66 0.99 1.32 1.98 2 3 C1.2265625 4.3303125 1.2265625 4.3303125 0.4375 5.6875 C-1.10818945 9.24930613 -1.03085585 10.39200451 0 14 C-1 15 -1 15 -2.84765625 15.09765625 C-4.8984375 15.06510417 -6.94921875 15.03255208 -9 15 C-9 11 -9 11 -6.75 8.625 C-5.8425 7.75875 -4.935 6.8925 -4 6 C-2.55883785 4.05235914 -1.28993543 2.05434161 0 0 Z " fill="#12241D" transform="translate(434,622)"/>
<path d="M0 0 C0.33 0 0.66 0 1 0 C2.98756888 4.9026699 3.37429811 9.48387248 3.65625 14.70703125 C3.82640625 15.84205078 3.82640625 15.84205078 4 17 C4.66 17.33 5.32 17.66 6 18 C5.67 18.99 5.34 19.98 5 21 C2.69 21 0.38 21 -2 21 C-2 17 -2 17 -1 16 C-0.76321284 13.30764224 -0.57801975 10.63501844 -0.4375 7.9375 C-0.39431641 7.17888672 -0.35113281 6.42027344 -0.30664062 5.63867188 C-0.20026367 3.75934562 -0.09960066 1.87969756 0 0 Z " fill="#0E221A" transform="translate(250,616)"/>
<path d="M0 0 C2.0340906 1.28072371 4.04402816 2.60287726 6 4 C5.67 5.32 5.34 6.64 5 8 C2.6875 8.6875 2.6875 8.6875 0 9 C-2.36380836 7.42412776 -2.96037999 6.1082947 -3.9375 3.4375 C-4.78929161 0.85128305 -4.78929161 0.85128305 -7.125 -0.3125 C-7.74375 -0.539375 -8.3625 -0.76625 -9 -1 C-5.12309564 -2.29230145 -3.74190277 -1.54078349 0 0 Z " fill="#EAEFEE" transform="translate(577,627)"/>
<path d="M0 0 C0.99 0.33 1.98 0.66 3 1 C3.1953125 7.0546875 3.1953125 7.0546875 3 9 C1 11 1 11 -1.15478516 11.22705078 C-2.02409668 11.21657715 -2.8934082 11.20610352 -3.7890625 11.1953125 C-4.73007812 11.18886719 -5.67109375 11.18242188 -6.640625 11.17578125 C-7.62546875 11.15902344 -8.6103125 11.14226563 -9.625 11.125 C-10.61757813 11.11597656 -11.61015625 11.10695313 -12.6328125 11.09765625 C-15.08878134 11.07404116 -17.54427168 11.04110799 -20 11 C-20 10.67 -20 10.34 -20 10 C-14.06 9.505 -14.06 9.505 -8 9 C-8 8.67 -8 8.34 -8 8 C-7.236875 7.979375 -6.47375 7.95875 -5.6875 7.9375 C-2.58610882 7.20339051 -2.58610882 7.20339051 -1.1875 3.4375 C-0.795625 2.303125 -0.40375 1.16875 0 0 Z " fill="#32413A" transform="translate(358,626)"/>
<path d="M0 0 C2.71499506 2.71499506 3.7444795 5.9267505 5.125 9.4375 C5.40214844 10.11876953 5.67929687 10.80003906 5.96484375 11.50195312 C7.14842926 14.47840831 8 16.76799028 8 20 C6.34867151 18.06695667 4.70388959 16.12895263 3.0625 14.1875 C2.35963867 13.36668945 2.35963867 13.36668945 1.64257812 12.52929688 C-0.46469483 10.02785775 -1.95567636 8.13297093 -3 5 C-1.5625 2.3125 -1.5625 2.3125 0 0 Z " fill="#85C63C" transform="translate(340,472)"/>
<path d="M0 0 C0.33 0.66 0.66 1.32 1 2 C0.3190918 4.01538086 0.3190918 4.01538086 -0.80078125 6.46484375 C-1.20103516 7.34720703 -1.60128906 8.22957031 -2.01367188 9.13867188 C-2.44228516 10.06228516 -2.87089844 10.98589844 -3.3125 11.9375 C-3.72951172 12.85724609 -4.14652344 13.77699219 -4.57617188 14.72460938 C-6.22561481 18.33128604 -7.79550514 21.69325771 -10 25 C-10.66 25 -11.32 25 -12 25 C-11.67 21.7 -11.34 18.4 -11 15 C-10.24332031 14.80664062 -9.48664062 14.61328125 -8.70703125 14.4140625 C-4.95823188 12.45581521 -4.30944988 10.22241601 -2.6875 6.375 C-1.91986328 4.59222656 -1.91986328 4.59222656 -1.13671875 2.7734375 C-0.76160156 1.85820312 -0.38648438 0.94296875 0 0 Z " fill="#165FA0" transform="translate(584,450)"/>
<path d="M0 0 C2.05078125 0.03255208 4.1015625 0.06510417 6.15234375 0.09765625 C6.15234375 1.08765625 6.15234375 2.07765625 6.15234375 3.09765625 C5.49234375 3.75765625 4.83234375 4.41765625 4.15234375 5.09765625 C3.84559143 7.99733382 3.64061004 10.81548803 3.52734375 13.72265625 C3.48867188 14.52445313 3.45 15.32625 3.41015625 16.15234375 C3.31580444 18.13373181 3.2329816 20.1156627 3.15234375 22.09765625 C2.82234375 22.09765625 2.49234375 22.09765625 2.15234375 22.09765625 C2.04277344 20.916875 1.93320312 19.73609375 1.8203125 18.51953125 C1.66082381 16.96217107 1.50063057 15.40488294 1.33984375 13.84765625 C1.26958984 13.07035156 1.19933594 12.29304687 1.12695312 11.4921875 C0.67102482 7.22469857 0.28775155 4.29319516 -2.84765625 1.09765625 C-1.84765625 0.09765625 -1.84765625 0.09765625 0 0 Z " fill="#0D241B" transform="translate(268.84765625,610.90234375)"/>
<path d="M0 0 C3.31248187 -0.02888146 6.62493167 -0.04675799 9.9375 -0.0625 C10.88302734 -0.07087891 11.82855469 -0.07925781 12.80273438 -0.08789062 C14.15141602 -0.09272461 14.15141602 -0.09272461 15.52734375 -0.09765625 C16.77632446 -0.10551147 16.77632446 -0.10551147 18.05053711 -0.11352539 C20 0 20 0 21 1 C21.04080783 2.99958364 21.04254356 5.00045254 21 7 C20.01 7.33 19.02 7.66 18 8 C17.66355469 7.20207031 17.32710937 6.40414062 16.98046875 5.58203125 C15.15050959 2.64771814 15.15050959 2.64771814 11.42578125 2.07421875 C10.05706409 1.92213907 8.68552317 1.79390609 7.3125 1.6875 C6.61060547 1.61466797 5.90871094 1.54183594 5.18554688 1.46679688 C3.45900733 1.29061937 1.72964138 1.14254117 0 1 C0 0.67 0 0.34 0 0 Z " fill="#13231C" transform="translate(541,611)"/>
<path d="M0 0 C2.64 0 5.28 0 8 0 C7.67 0.99 7.34 1.98 7 3 C6.34 3 5.68 3 5 3 C4.731875 3.721875 4.46375 4.44375 4.1875 5.1875 C3.01017502 7.97590126 1.60854116 10.44095724 0 13 C-0.66 12.67 -1.32 12.34 -2 12 C-1.56231549 9.37389294 -1.12693161 7.2397597 0.125 4.875 C1.33193231 2.84955586 1.33193231 2.84955586 0 0 Z " fill="#16251E" transform="translate(518,611)"/>
<path d="M0 0 C2.25 0 2.25 0 5 1 C6.92590633 3.17643073 8.48205639 5.52607489 10 8 C9.67 8.66 9.34 9.32 9 10 C7.51245994 9.26674793 6.03513808 8.51273922 4.5625 7.75 C3.73878906 7.33234375 2.91507813 6.9146875 2.06640625 6.484375 C0 5 0 5 -0.84765625 2.890625 C-0.89792969 2.26671875 -0.94820312 1.6428125 -1 1 C-0.67 0.67 -0.34 0.34 0 0 Z " fill="#F0F5F3" transform="translate(577,612)"/>
<path d="M0 0 C1.49297212 2.98594424 1.11755228 5.70853624 1 9 C0.67 9.66 0.34 10.32 0 11 C-0.99 10.67 -1.98 10.34 -3 10 C-3.67784992 7.66989091 -4.34416793 5.33640176 -5 3 C-5.99 2.34 -6.98 1.68 -8 1 C-5.29120665 -0.35439668 -2.99066732 -0.06501451 0 0 Z " fill="#0D2018" transform="translate(305,611)"/>
<path d="M0 0 C1.89885096 1.89885096 1.12367506 4.57247903 1.1328125 7.08984375 C1 9 1 9 0 11 C-0.66 11 -1.32 11 -2 11 C-2.29003906 10.16855469 -2.29003906 10.16855469 -2.5859375 9.3203125 C-2.84632813 8.59585938 -3.10671875 7.87140625 -3.375 7.125 C-3.75785156 6.04605469 -3.75785156 6.04605469 -4.1484375 4.9453125 C-4.93877783 2.81842006 -4.93877783 2.81842006 -7 1 C-4.51588385 -0.24205807 -2.74800896 -0.14092354 0 0 Z " fill="#21322A" transform="translate(678,611)"/>
<path d="M0 0 C2.30441554 3.45662331 2.25860135 4.94857881 2 9 C1.67 9.66 1.34 10.32 1 11 C0.34 11 -0.32 11 -1 11 C-1.18175781 10.44570313 -1.36351562 9.89140625 -1.55078125 9.3203125 C-1.92783203 8.23363281 -1.92783203 8.23363281 -2.3125 7.125 C-2.55613281 6.40570312 -2.79976562 5.68640625 -3.05078125 4.9453125 C-3.96335547 2.66005095 -3.96335547 2.66005095 -7 1 C-3.535 0.505 -3.535 0.505 0 0 Z " fill="#24342C" transform="translate(621,611)"/>
<path d="M0 0 C3.33907481 1.28835099 6.5119161 2.72684571 9.6875 4.375 C14.6769674 6.90349701 19.77549598 9.01024208 25 11 C19.96429063 12.67856979 15.6824184 10.11214553 11 8 C7.20303683 5.85104057 3.51390971 3.58955435 0 1 C0 0.67 0 0.34 0 0 Z " fill="#1D619D" transform="translate(388,237)"/>
<path d="M0 0 C2.0625 2.3125 2.0625 2.3125 4 5 C3.67 5.99 3.34 6.98 3 8 C0.69 8 -1.62 8 -4 8 C-4.33 7.01 -4.66 6.02 -5 5 C-3.35 3.35 -1.7 1.7 0 0 Z " fill="#152821" transform="translate(742,629)"/>
<path d="M0 0 C3.10551666 3.10551666 3.81323934 4.89198233 5 9 C2.36 9 -0.28 9 -3 9 C-2.01 6.03 -1.02 3.06 0 0 Z " fill="#D7DFDC" transform="translate(749,619)"/>
<path d="M0 0 C2.50298434 2.93828597 3.46930939 5.17902761 4 9 C1.69 9 -0.62 9 -3 9 C-2.44271087 5.65626525 -1.64826111 2.96687001 0 0 Z " fill="#DEE5E3" transform="translate(468,619)"/>
<path d="M0 0 C0.33 0.66 0.66 1.32 1 2 C0.566875 3.2065625 0.566875 3.2065625 0.125 4.4375 C-1.39231664 9.24233603 -1.66139275 13.99217705 -2 19 C-2.33 19 -2.66 19 -3 19 C-3.33 16.03 -3.66 13.06 -4 10 C-4.99 10.495 -4.99 10.495 -6 11 C-5.55530671 5.96014269 -3.28656638 3.62365012 0 0 Z " fill="#818487" transform="translate(237,284)"/>
<path d="M0 0 C0.66 0.33 1.32 0.66 2 1 C1.154375 1.66 0.30875 2.32 -0.5625 3 C-4.49923221 6.26025317 -7.72376794 10.09372332 -11 14 C-11.99 13.67 -12.98 13.34 -14 13 C-4.58997722 3.40546697 -4.58997722 3.40546697 0 0 Z " fill="#F3FDDE" transform="translate(333,202)"/>
<path d="M0 0 C0.66 0.33 1.32 0.66 2 1 C1.38125 1.721875 0.7625 2.44375 0.125 3.1875 C-2.59263868 6.78437472 -4 9.47145334 -4 14 C-6.22189824 11.77810176 -6.92598892 9.91517292 -8 7 C-7.34 7 -6.68 7 -6 7 C-5.67 6.01 -5.34 5.02 -5 4 C-4.34 4 -3.68 4 -3 4 C-2.67 3.01 -2.34 2.02 -2 1 C-1.34 0.67 -0.68 0.34 0 0 Z " fill="#0F231A" transform="translate(450,614)"/>
<path d="M0 0 C-0.85464844 0.20496094 -1.70929688 0.40992188 -2.58984375 0.62109375 C-3.69457031 0.89050781 -4.79929687 1.15992188 -5.9375 1.4375 C-7.03964844 1.70433594 -8.14179688 1.97117188 -9.27734375 2.24609375 C-11.89421254 2.72995725 -11.89421254 2.72995725 -13 4 C-15.01594582 4.23427778 -17.038474 4.41336124 -19.0625 4.5625 C-20.16722656 4.64628906 -21.27195312 4.73007813 -22.41015625 4.81640625 C-23.26480469 4.87699219 -24.11945313 4.93757812 -25 5 C-18.46206145 0.6413743 -7.70856834 -2.19769119 0 0 Z " fill="#DFF5BF" transform="translate(393,183)"/>
<path d="M0 0 C0.5775 0.78375 1.155 1.5675 1.75 2.375 C3.82897637 4.80047244 5.09040333 5.85694417 8 7 C7.67 7.99 7.34 8.98 7 10 C4.36 10 1.72 10 -1 10 C-1 9.34 -1 8.68 -1 8 C-0.01 7.67 0.98 7.34 2 7 C1.34 6.01 0.68 5.02 0 4 C0 2.68 0 1.36 0 0 Z " fill="#2A3A32" transform="translate(373,628)"/>
<path d="M0 0 C0.66 0 1.32 0 2 0 C1.38188466 4.55315948 -0.46765893 8.28459767 -2.5625 12.3125 C-2.89185547 12.95767578 -3.22121094 13.60285156 -3.56054688 14.26757812 C-4.36824255 15.84785228 -5.18337613 17.42432105 -6 19 C-7.28357735 15.14926794 -6.42743265 14.20288967 -4.6875 10.625 C-3.00175573 7.11826551 -1.40552834 3.62929852 0 0 Z " fill="#326190" transform="translate(567,483)"/>
<path d="M0 0 C0.66 0.33 1.32 0.66 2 1 C1.01 2.32 0.02 3.64 -1 5 C1.97 5 4.94 5 8 5 C8.33 5.66 8.66 6.32 9 7 C4.71 7 0.42 7 -4 7 C-2 2 -2 2 0 0 Z " fill="#96C13F" transform="translate(448,382)"/>
<path d="M0 0 C0.99 0 1.98 0 3 0 C3 2.31 3 4.62 3 7 C-1.29 6.67 -5.58 6.34 -10 6 C-10 5.67 -10 5.34 -10 5 C-8.72125 4.9175 -7.4425 4.835 -6.125 4.75 C-3.94666582 4.54130069 -3.94666582 4.54130069 -2 4 C-0.4100567 2.07935207 -0.4100567 2.07935207 0 0 Z " fill="#34433D" transform="translate(646,629)"/>
<path d="M0 0 C0.99 0 1.98 0 3 0 C3 2.31 3 4.62 3 7 C-1.29 6.67 -5.58 6.34 -10 6 C-10 5.67 -10 5.34 -10 5 C-8.72125 4.9175 -7.4425 4.835 -6.125 4.75 C-3.94666582 4.54130069 -3.94666582 4.54130069 -2 4 C-0.4100567 2.07935207 -0.4100567 2.07935207 0 0 Z " fill="#34443E" transform="translate(560,629)"/>
<path d="M0 0 C0.99 0.33 1.98 0.66 3 1 C3 1.33 3 1.66 3 2 C9.93 2.33 16.86 2.66 24 3 C24 3.33 24 3.66 24 4 C16.08 4 8.16 4 0 4 C0 2.68 0 1.36 0 0 Z " fill="#2E3E38" transform="translate(624,633)"/>
<path d="M0 0 C0.33 0.66 0.66 1.32 1 2 C6.94 1.505 6.94 1.505 13 1 C12.67 1.99 12.34 2.98 12 4 C8.04 4 4.08 4 0 4 C0 2.68 0 1.36 0 0 Z " fill="#14261F" transform="translate(474,633)"/>
<path d="M0 0 C0.66 0 1.32 0 2 0 C2 3.3 2 6.6 2 10 C1.01 10 0.02 10 -1 10 C-1.66 8.68 -2.32 7.36 -3 6 C-2.34 6 -1.68 6 -1 6 C-0.67 4.02 -0.34 2.04 0 0 Z " fill="#2A3931" transform="translate(640,619)"/>
<path d="M0 0 C0.763125 0.103125 1.52625 0.20625 2.3125 0.3125 C2.6425 0.9725 2.9725 1.6325 3.3125 2.3125 C2.52875 2.580625 1.745 2.84875 0.9375 3.125 C-1.96864923 4.16064432 -1.96864923 4.16064432 -3.6875 7.3125 C-4.08137788 9.63637947 -4.42236085 11.97043749 -4.6875 14.3125 C-5.0175 14.3125 -5.3475 14.3125 -5.6875 14.3125 C-5.94271755 9.97380162 -6.0881298 6.34570318 -4.5 2.25 C-2.6875 0.3125 -2.6875 0.3125 0 0 Z " fill="#D9F2FB" transform="translate(482.6875,552.6875)"/>
<path d="M0 0 C0.66 0 1.32 0 2 0 C1.58578031 4.83256305 -0.46413986 6.82679218 -4 10 C-4.99 9.67 -5.98 9.34 -7 9 C-6.5875 8.62875 -6.175 8.2575 -5.75 7.875 C-3.80047389 5.89630058 -3.80047389 5.89630058 -1.9375 2.8125 C-0.9784375 1.4203125 -0.9784375 1.4203125 0 0 Z " fill="#111F17" transform="translate(735,626)"/>
<path d="M0 0 C1.75570313 0.01353516 1.75570313 0.01353516 3.546875 0.02734375 C4.43890625 0.03894531 5.3309375 0.05054688 6.25 0.0625 C6.25 0.3925 6.25 0.7225 6.25 1.0625 C3.27148438 1.35546875 3.27148438 1.35546875 0.29296875 1.6484375 C-2.04988142 1.98915391 -2.04988142 1.98915391 -4.75 4.0625 C-4.75 3.4025 -4.75 2.7425 -4.75 2.0625 C-7.39 2.3925 -10.03 2.7225 -12.75 3.0625 C-9.07453126 -0.61296874 -5.00479254 -0.05004793 0 0 Z " fill="#185E9C" transform="translate(483.75,549.9375)"/>
<path d="M0 0 C4.29 0 8.58 0 13 0 C11 2 11 2 7.9375 2.5 C6.4834375 2.7475 6.4834375 2.7475 5 3 C4.67 3.66 4.34 4.32 4 5 C2.68 3.35 1.36 1.7 0 0 Z " fill="#C4E3F4" transform="translate(481,575)"/>
<path d="M0 0 C1.39035371 4.17106112 -0.09769194 7.18206859 -1.4375 11.1875 C-1.68048828 11.93708984 -1.92347656 12.68667969 -2.17382812 13.45898438 C-2.77465056 15.30857501 -3.38629678 17.15464327 -4 19 C-4.33 19 -4.66 19 -5 19 C-5.40204619 13.63938413 -4.03523087 9.83491431 -2 5 C-1.4121875 3.515 -1.4121875 3.515 -0.8125 2 C-0.544375 1.34 -0.27625 0.68 0 0 Z " fill="#DAF1F9" transform="translate(578,446)"/>
<path d="M0 0 C0.33 0 0.66 0 1 0 C1 3.3 1 6.6 1 10 C0.01 10.33 -0.98 10.66 -2 11 C-2.66 9.02 -3.32 7.04 -4 5 C-3.01 4.34 -2.02 3.68 -1 3 C-0.67 2.01 -0.34 1.02 0 0 Z " fill="#415049" transform="translate(555,619)"/>
<path d="M0 0 C0 0.66 0 1.32 0 2 C0.66 2.66 1.32 3.32 2 4 C-0.64 4.33 -3.28 4.66 -6 5 C-6 4.34 -6 3.68 -6 3 C-7.32 2.34 -8.64 1.68 -10 1 C-2.25 0 -2.25 0 0 0 Z " fill="#D8EFFC" transform="translate(622,548)"/>
<path d="M0 0 C0.99 0.33 1.98 0.66 3 1 C4.25541557 4.76624671 3.37061958 6.37188934 2 10 C1.34 9.67 0.68 9.34 0 9 C0 6.03 0 3.06 0 0 Z " fill="#1D3029" transform="translate(594,612)"/>
<path d="M0 0 C1.2684375 0.495 1.2684375 0.495 2.5625 1 C1.5725 1.33 0.5825 1.66 -0.4375 2 C-1.0975 1.67 -1.7575 1.34 -2.4375 1 C-2.685 1.5775 -2.9325 2.155 -3.1875 2.75 C-4.60433317 5.3002997 -6.31377537 7.01785701 -8.4375 9 C-9.0975 8.67 -9.7575 8.34 -10.4375 8 C-4.52065098 0 -4.52065098 0 0 0 Z " fill="#D6EDF9" transform="translate(312.4375,554)"/>
<path d="M0 0 C0.66 0.99 1.32 1.98 2 3 C0.68 5.31 -0.64 7.62 -2 10 C-2.66 8.68 -3.32 7.36 -4 6 C-2.68 4.02 -1.36 2.04 0 0 Z " fill="#11221A" transform="translate(434,622)"/>
<path d="M0 0 C-0.33 0.99 -0.66 1.98 -1 3 C-5.29 3 -9.58 3 -14 3 C-14 2.67 -14 2.34 -14 2 C-12.04200486 1.66468585 -10.08359226 1.33180857 -8.125 1 C-6.48917969 0.7215625 -6.48917969 0.7215625 -4.8203125 0.4375 C-2 0 -2 0 0 0 Z " fill="#243630" transform="translate(672,634)"/>
<path d="M0 0 C1.32 0.33 2.64 0.66 4 1 C3.51421457 4.12290635 3.0013988 6.99580359 2 10 C1.34 9.67 0.68 9.34 0 9 C0 6.03 0 3.06 0 0 Z " fill="#162922" transform="translate(277,612)"/>
<path d="M0 0 C2.64752004 2.57784846 4.94432065 4.91648098 7 8 C6.67 8.99 6.34 9.98 6 11 C5.34 9.68 4.68 8.36 4 7 C3.34 7.66 2.68 8.32 2 9 C1.34 6.03 0.68 3.06 0 0 Z " fill="#7F8184" transform="translate(680,287)"/>
<path d="M0 0 C1.60577252 4.01443129 0.36580696 7.04634827 -1 11 C-1.66 11.99 -2.32 12.98 -3 14 C-2.58846263 9.02906176 -2.20399168 4.55491614 0 0 Z " fill="#E7F9CD" transform="translate(301,248)"/>
<path d="M0 0 C0.66 0.33 1.32 0.66 2 1 C-0.64 4.63 -3.28 8.26 -6 12 C-6.66 11.67 -7.32 11.34 -8 11 C-6.85539001 9.35331565 -5.70927742 7.70767566 -4.5625 6.0625 C-3.92441406 5.14597656 -3.28632813 4.22945312 -2.62890625 3.28515625 C-1 1 -1 1 0 0 Z " fill="#81BE3A" transform="translate(285,190)"/>
<path d="M0 0 C0.99 0.495 0.99 0.495 2 1 C2 2.65 2 4.3 2 6 C2.66 6 3.32 6 4 6 C4 5.34 4 4.68 4 4 C4.66 4.33 5.32 4.66 6 5 C4.625 7.5 4.625 7.5 3 10 C2.34 10 1.68 10 1 10 C0.67 6.7 0.34 3.4 0 0 Z " fill="#E5F8FD" transform="translate(457,554)"/>
<path d="M0 0 C1.2065625 0.0309375 1.2065625 0.0309375 2.4375 0.0625 C0.6875 2.5625 0.6875 2.5625 -1.5625 5.0625 C-2.8825 5.0625 -4.2025 5.0625 -5.5625 5.0625 C-3.15007962 0.07683121 -3.15007962 0.07683121 0 0 Z " fill="#DCF4FD" transform="translate(439.5625,553.9375)"/>
<path d="M0 0 C1.07310858 3.27185553 0.89263102 5.42947592 0.0625 8.75 C-0.13214844 9.54921875 -0.32679688 10.3484375 -0.52734375 11.171875 C-0.68332031 11.77515625 -0.83929688 12.3784375 -1 13 C-1.33 13 -1.66 13 -2 13 C-2 9.04 -2 5.08 -2 1 C-1.34 0.67 -0.68 0.34 0 0 Z " fill="#E7F8CD" transform="translate(263,239)"/>
<path d="M0 0 C0 0.66 0 1.32 0 2 C-2.97 2 -5.94 2 -9 2 C-9 1.34 -9 0.68 -9 0 C-5.62182575 -0.84454356 -3.32534757 -1.10844919 0 0 Z " fill="#314139" transform="translate(174,636)"/>
<path d="M0 0 C2.475 0.99 2.475 0.99 5 2 C4.505 2.61875 4.01 3.2375 3.5 3.875 C1.80777227 5.83880904 1.80777227 5.83880904 2 8 C1.34 8 0.68 8 0 8 C0 5.36 0 2.72 0 0 Z " fill="#12271E" transform="translate(651,611)"/>
<path d="M0 0 C0.99 0 1.98 0 3 0 C3 3.63 3 7.26 3 11 C0.43383368 7.15075052 0.44902324 4.5650696 0 0 Z " fill="#EBF8D7" transform="translate(306,359)"/>
<path d="M0 0 C1.32 0.66 2.64 1.32 4 2 C2.0373772 4.04795423 0.5722693 4.94976638 -2.26953125 5.19921875 C-4.51954383 5.18858877 -6.75385562 5.12958525 -9 5 C-9 4.67 -9 4.34 -9 4 C-6.36 4 -3.72 4 -1 4 C-0.67 2.68 -0.34 1.36 0 0 Z " fill="#394941" transform="translate(326,633)"/>
<path d="M0 0 C1.32 1.32 2.64 2.64 4 4 C3.67 4.66 3.34 5.32 3 6 C1.35 6 -0.3 6 -2 6 C-1.34 4.02 -0.68 2.04 0 0 Z " fill="#1B3229" transform="translate(429,629)"/>
<path d="M0 0 C3.0916909 2.52956528 3.90931332 5.22454612 5 9 C2.5 6.75 2.5 6.75 0 4 C0 2.68 0 1.36 0 0 Z " fill="#84B949" transform="translate(344,483)"/>
<path d="M0 0 C5.75 1.875 5.75 1.875 8 3 C7.67 3.66 7.34 4.32 7 5 C3.47967572 5 2.5614657 4.29648649 0 2 C0 1.34 0 0.68 0 0 Z " fill="#1C5A96" transform="translate(356,208)"/>
<path d="M0 0 C0.33 0 0.66 0 1 0 C1.125 6.75 1.125 6.75 0 9 C-0.99 8.67 -1.98 8.34 -3 8 C-3 7.01 -3 6.02 -3 5 C-2.34 5 -1.68 5 -1 5 C-0.67 3.35 -0.34 1.7 0 0 Z " fill="#515E58" transform="translate(305,613)"/>
<path d="M0 0 C0 0.66 0 1.32 0 2 C-2.31 2 -4.62 2 -7 2 C-7 1.34 -7 0.68 -7 0 C-4.3333581 -1.33332095 -2.83319697 -0.67102033 0 0 Z " fill="#8CC14F" transform="translate(468,183)"/>
<path d="M0 0 C1.98 0.66 3.96 1.32 6 2 C4.75 3.5625 4.75 3.5625 3 5 C0.8125 4.6875 0.8125 4.6875 -1 4 C-0.34 3.67 0.32 3.34 1 3 C0.67 2.01 0.34 1.02 0 0 Z " fill="#83C437" transform="translate(458,179)"/>
</svg>
